<?xml version="1.0" standalone="no"?>
<!DOCTYPE svg PUBLIC "-//W3C//DTD SVG 20010904//EN"
 "http://www.w3.org/TR/2001/REC-SVG-20010904/DTD/svg10.dtd">
<svg version="1.0" xmlns="http://www.w3.org/2000/svg"
 width="500.000000pt" height="500.000000pt" viewBox="0 0 500.000000 500.000000"
 preserveAspectRatio="xMidYMid meet">
<metadata>
Created by potrace 1.14, written by Peter Selinger 2001-2017
</metadata>
<g transform="translate(0.000000,500.000000) scale(0.100000,-0.100000)"
fill="#000000" stroke="none">
<path d="M666 4859 c3 -5 10 -6 16 -3 7 4 8 2 4 -4 -4 -7 -15 -8 -29 -4 -27
10 -88 9 -104 -1 -7 -5 -13 -6 -13 -3 0 3 -15 -3 -33 -13 -17 -10 -39 -17 -48
-16 -12 2 -15 -3 -12 -16 4 -14 1 -17 -17 -14 -16 3 -20 0 -16 -10 3 -8 1 -17
-4 -20 -4 -3 -11 1 -13 7 -3 8 -6 6 -6 -5 -1 -11 -5 -15 -13 -11 -8 5 -9 2 -4
-11 6 -16 4 -16 -10 -4 -16 13 -16 12 -5 -8 10 -20 9 -22 -5 -16 -13 5 -15 3
-9 -7 6 -10 4 -12 -7 -7 -12 4 -15 0 -13 -18 1 -15 -2 -22 -8 -18 -7 4 -8 0
-4 -11 6 -14 3 -17 -9 -12 -15 6 -15 4 -3 -11 8 -9 9 -14 3 -10 -7 4 -14 0
-18 -8 -3 -8 -1 -17 5 -20 5 -4 -1 -15 -13 -26 l-23 -20 25 12 c22 11 23 10
13 -3 -7 -8 -10 -18 -6 -22 4 -4 0 -4 -10 0 -10 3 -17 1 -17 -5 0 -6 8 -11 17
-11 9 0 13 -3 9 -7 -4 -5 -12 -8 -18 -8 -18 0 -18 -38 0 -59 9 -11 12 -16 5
-13 -6 4 -14 3 -18 -3 -3 -5 -2 -10 3 -10 10 0 13 -29 4 -50 -11 -29 -10 -51
4 -46 7 3 16 0 20 -6 4 -7 3 -8 -4 -4 -14 8 -12 -20 2 -44 7 -12 6 -13 -5 -2
-17 16 -26 15 -26 -3 0 -8 4 -12 9 -9 13 8 10 -10 -4 -25 -11 -11 -8 -12 12
-6 l25 7 -22 -16 c-23 -17 -28 -60 -6 -52 7 3 15 0 19 -6 4 -7 3 -8 -4 -4 -14
8 -12 -20 2 -44 7 -12 6 -13 -5 -2 -17 16 -26 15 -26 -3 0 -8 4 -12 9 -9 13 8
10 -10 -4 -25 -11 -11 -8 -12 12 -6 14 3 20 3 15 -2 -16 -13 -36 -63 -25 -63
6 0 10 5 10 12 0 6 3 8 7 5 3 -4 -2 -17 -13 -29 -10 -12 -14 -18 -8 -15 7 4
15 0 18 -9 3 -8 2 -12 -3 -9 -5 3 -12 1 -16 -5 -3 -5 -1 -10 6 -10 7 0 10 -3
6 -6 -3 -3 -1 -17 4 -31 7 -20 7 -24 -5 -20 -14 6 -15 2 -1 -46 4 -17 3 -38
-4 -53 -6 -15 -7 -24 -1 -24 6 0 10 5 10 12 0 6 3 8 7 5 3 -4 -2 -17 -13 -29
-10 -12 -14 -18 -8 -15 7 4 15 0 18 -9 3 -8 2 -12 -3 -9 -5 3 -12 1 -16 -5 -3
-5 -1 -10 6 -10 7 0 10 -3 6 -6 -3 -3 -1 -17 4 -31 7 -20 7 -24 -5 -20 -14 6
-15 2 -1 -46 4 -17 3 -38 -4 -53 -6 -15 -7 -24 -1 -24 6 0 10 5 10 12 0 6 3 8
7 5 3 -4 -2 -17 -13 -29 -10 -12 -14 -18 -8 -15 7 4 15 0 18 -9 3 -8 2 -12 -3
-9 -5 3 -12 1 -16 -5 -3 -5 -2 -10 3 -10 10 0 13 -29 4 -50 -11 -29 -10 -51 4
-46 7 3 16 0 20 -6 4 -7 3 -8 -4 -4 -14 8 -12 -20 2 -44 7 -12 6 -13 -5 -2
-17 16 -26 15 -26 -3 0 -8 4 -12 9 -9 13 8 10 -10 -5 -25 -10 -11 -7 -12 13
-6 l25 7 -22 -16 c-23 -17 -28 -60 -6 -52 7 3 15 0 19 -6 4 -7 3 -8 -4 -4 -14
8 -12 -20 2 -44 7 -12 6 -13 -5 -2 -17 16 -26 15 -26 -3 0 -8 4 -12 9 -9 13 8
10 -10 -5 -25 -10 -11 -7 -12 13 -6 14 3 20 3 15 -2 -16 -13 -36 -63 -25 -63
6 0 10 5 10 12 0 6 3 8 7 5 3 -4 -2 -17 -13 -29 -10 -12 -14 -18 -8 -15 7 4
15 0 18 -9 3 -8 2 -12 -3 -9 -5 3 -12 1 -16 -5 -3 -5 -1 -10 6 -10 7 0 10 -3
6 -6 -3 -3 -1 -17 4 -31 7 -20 7 -24 -5 -20 -14 6 -15 2 -1 -46 4 -17 3 -38
-4 -53 -6 -15 -7 -24 -1 -24 6 0 10 5 10 12 0 6 3 8 7 5 3 -4 -2 -17 -13 -29
-10 -12 -13 -18 -7 -14 17 9 17 -6 0 -23 -10 -11 -9 -13 5 -8 10 3 20 1 24 -5
4 -7 3 -8 -5 -4 -6 4 -14 0 -17 -8 -3 -9 -11 -13 -17 -9 -6 4 -7 1 -2 -6 5 -9
10 -10 18 -2 6 6 16 11 22 11 6 0 7 -3 0 -8 -15 -10 -42 -47 -30 -40 6 4 15
-5 22 -18 13 -28 10 -30 -10 -9 -13 12 -14 10 -13 -15 0 -15 4 -26 9 -23 4 2
4 9 1 15 -4 7 -2 8 4 4 9 -5 8 -15 -3 -37 -9 -16 -11 -29 -5 -29 5 0 10 5 10
10 0 6 5 10 12 10 6 0 1 -12 -13 -27 -13 -14 -19 -23 -13 -20 7 4 15 0 18 -9
3 -8 2 -12 -4 -9 -12 8 -12 3 0 -29 6 -17 6 -27 -2 -32 -7 -5 -8 -2 -3 7 5 8
4 10 0 6 -17 -15 -14 -42 8 -67 13 -14 15 -19 4 -11 -15 12 -17 11 -13 -10 2
-13 9 -23 16 -21 6 1 9 -2 5 -8 -3 -6 -11 -7 -17 -4 -6 4 -8 -1 -3 -16 4 -12
8 -28 9 -34 1 -6 6 -17 10 -25 6 -9 5 -12 -1 -8 -6 4 -16 0 -23 -8 -10 -12 -9
-15 6 -15 17 0 17 -1 -2 -16 -10 -8 -14 -13 -8 -10 15 8 26 -21 12 -30 -7 -4
-8 -3 -4 4 4 7 3 12 -3 12 -5 0 -9 -9 -8 -20 1 -23 8 -25 27 -7 12 10 12 9 2
-4 -7 -9 -10 -23 -6 -32 3 -8 0 -18 -6 -22 -8 -5 -6 -14 5 -32 10 -14 13 -23
7 -19 -5 3 -15 -1 -22 -9 -10 -12 -9 -15 6 -15 15 0 16 -2 5 -9 -8 -5 -16 -19
-18 -31 -2 -12 1 -19 7 -15 5 3 10 1 10 -4 0 -6 -6 -11 -12 -11 -9 0 -8 -4 2
-10 13 -9 13 -10 0 -11 -10 0 -8 -3 5 -9 l20 -9 -20 0 c-15 -1 -17 -3 -6 -10
11 -7 11 -9 0 -14 -10 -4 -9 -6 4 -6 9 -1 17 -6 17 -11 0 -6 -5 -9 -11 -8 -6
2 -14 -3 -17 -11 -2 -8 0 -11 6 -8 5 4 12 -2 15 -12 3 -12 0 -18 -7 -15 -6 2
-12 -5 -13 -16 -1 -11 3 -20 8 -20 6 0 7 5 3 12 -5 7 -3 8 6 3 10 -6 9 -11 -5
-22 -13 -9 -15 -13 -5 -13 11 0 11 -3 2 -12 -7 -7 -12 -17 -12 -22 1 -6 10 0
20 13 11 13 20 19 20 14 0 -5 -9 -19 -20 -31 -12 -12 -17 -22 -11 -22 14 0 21
-29 9 -36 -6 -4 -8 -3 -4 4 3 6 3 13 -1 15 -5 3 -8 -14 -9 -38 0 -24 3 -42 7
-39 4 2 9 -3 13 -11 3 -8 0 -17 -6 -21 -7 -5 -8 -2 -3 7 5 8 4 10 0 6 -11 -9
-16 -39 -6 -33 4 3 13 -5 21 -17 12 -20 12 -21 -3 -8 -10 7 -17 10 -18 5 0 -5
-2 -19 -5 -32 -2 -13 0 -21 5 -18 5 3 11 -1 15 -9 3 -8 0 -17 -6 -21 -7 -5 -8
-2 -3 7 5 8 4 11 0 6 -13 -12 -16 -47 -4 -47 5 0 7 5 3 12 -5 7 -3 8 6 3 10
-6 9 -11 -5 -22 -14 -9 -15 -13 -4 -13 12 0 12 -2 -1 -10 -12 -8 -12 -10 -1
-10 11 0 11 -3 1 -15 -15 -18 0 -20 20 -3 8 7 7 4 -3 -8 -13 -16 -14 -23 -4
-34 9 -10 9 -11 -1 -6 -14 8 -14 7 -16 -54 -1 -25 -5 -50 -9 -57 -4 -6 -3 -14
3 -18 6 -3 8 -18 6 -32 -4 -18 -1 -23 9 -19 8 3 17 0 21 -6 4 -7 3 -8 -4 -4
-8 4 -12 0 -12 -11 0 -15 -2 -16 -10 -3 -8 11 -9 7 -4 -14 5 -22 4 -27 -6 -21
-9 6 -11 4 -6 -4 5 -7 15 -10 25 -7 12 5 11 2 -3 -9 -14 -10 -15 -15 -6 -15
10 0 11 -3 3 -11 -6 -6 -9 -18 -6 -27 5 -11 3 -13 -8 -7 -11 7 -12 6 -2 -7 7
-8 9 -19 5 -23 -4 -5 -2 -6 3 -2 6 3 11 -3 11 -14 0 -10 -5 -19 -11 -20 -5 0
1 -5 14 -10 l24 -9 -22 -23 c-11 -13 -18 -27 -14 -30 3 -4 0 -7 -8 -7 -10 -1
-9 -4 4 -11 15 -9 16 -13 5 -27 -8 -9 -8 -13 -1 -9 13 8 12 -10 -1 -32 -6 -10
-5 -12 2 -7 7 4 12 3 12 -3 0 -5 -6 -12 -13 -14 -9 -4 -9 -6 1 -6 6 -1 12 -6
12 -12 0 -5 -4 -8 -9 -5 -4 3 -6 -6 -3 -19 2 -14 9 -25 16 -25 6 0 3 -5 -6
-11 -10 -5 -18 -15 -18 -21 0 -7 5 -7 14 1 11 9 16 9 22 0 4 -7 3 -10 -2 -7
-5 3 -15 0 -22 -8 -13 -14 -5 -19 21 -15 5 1 5 -3 2 -9 -4 -6 -13 -9 -21 -6
-11 4 -12 1 -5 -13 6 -10 7 -22 3 -26 -4 -5 -2 -5 4 -2 6 4 15 -8 22 -28 5
-19 6 -33 1 -29 -5 3 -6 -2 -3 -10 3 -9 10 -13 15 -10 5 3 9 -4 9 -16 0 -14 4
-19 12 -14 10 6 10 4 0 -8 -15 -18 0 -34 20 -22 7 5 8 3 2 -7 -14 -22 -13 -36
2 -36 9 0 11 4 4 12 -7 8 -5 12 3 12 7 0 14 -10 15 -21 0 -11 6 -22 12 -24 5
-2 7 -9 3 -15 -4 -7 1 -6 11 2 9 8 16 10 15 5 -3 -19 1 -34 10 -31 5 1 16 -7
25 -18 15 -19 15 -19 11 5 -5 24 -4 24 7 -2 6 -15 18 -30 26 -33 13 -5 13 -3
1 12 -13 16 -12 16 15 -1 16 -10 25 -12 21 -5 -6 8 -4 10 4 5 7 -5 10 -15 7
-25 -4 -9 3 -5 14 9 11 14 18 18 15 9 -3 -9 2 -22 11 -30 16 -13 17 -12 10 5
-7 20 -7 20 15 0 12 -10 19 -13 15 -7 -4 7 -2 13 3 13 6 0 11 -5 11 -11 0 -8
6 -7 17 2 11 10 14 10 9 2 -5 -9 2 -13 24 -13 17 0 29 4 26 8 -3 5 2 9 10 9 9
0 13 -6 9 -16 -5 -12 -2 -12 13 2 10 9 22 14 26 10 11 -11 30 -10 38 2 5 6 8
6 8 -2 0 -7 7 -13 16 -13 8 0 13 4 9 9 -3 5 0 13 6 17 7 4 9 3 5 -4 -10 -17
13 -25 31 -10 10 8 14 8 10 1 -8 -13 47 -13 59 0 11 10 24 8 24 -4 0 -5 -5 -7
-12 -3 -7 5 -8 3 -4 -5 6 -9 12 -9 25 3 10 9 21 13 25 9 11 -11 30 -10 38 2 5
6 8 6 8 -2 0 -7 7 -13 16 -13 8 0 13 4 9 9 -3 5 0 13 6 17 7 4 9 3 5 -4 -10
-17 13 -25 31 -10 10 8 14 8 10 1 -8 -13 47 -13 59 0 11 10 24 8 24 -4 0 -5
-5 -7 -12 -3 -7 5 -8 3 -4 -5 6 -9 12 -8 26 4 10 9 21 12 24 7 6 -11 91 -10
102 1 11 10 24 9 24 -4 0 -5 -5 -7 -12 -3 -7 5 -8 3 -4 -5 6 -9 12 -9 25 3 10
9 21 13 25 9 11 -11 30 -10 38 2 5 6 8 6 8 -2 0 -7 7 -13 16 -13 8 0 13 4 9 9
-3 5 0 13 6 17 7 4 9 3 5 -4 -10 -17 13 -25 31 -10 10 8 14 8 10 1 -8 -13 47
-13 59 0 11 10 24 8 24 -4 0 -5 -5 -7 -12 -3 -7 5 -8 3 -4 -5 6 -9 12 -9 25 3
10 9 21 13 25 9 11 -11 30 -10 38 2 5 6 8 6 8 -2 0 -7 7 -13 16 -13 8 0 13 4
9 9 -3 5 0 13 6 17 7 4 9 3 5 -4 -10 -17 13 -25 31 -10 10 8 14 8 10 1 -8 -13
47 -13 59 0 11 10 24 8 24 -4 0 -5 -5 -7 -12 -3 -7 5 -8 3 -4 -5 6 -9 12 -9
25 3 10 9 21 13 25 9 10 -11 96 -11 90 -1 -3 4 -1 8 5 8 5 0 11 -6 14 -12 3
-10 7 -10 20 1 10 7 17 9 17 4 0 -5 7 -10 15 -10 10 0 14 6 10 16 -3 9 4 5 16
-9 11 -14 18 -19 14 -12 -4 7 0 12 10 12 9 0 13 -4 10 -10 -3 -6 1 -7 9 -4 9
3 14 9 11 13 -5 9 50 7 86 -3 23 -7 23 -6 5 8 -11 9 -15 16 -9 16 6 0 16 -7
23 -15 10 -12 16 -13 26 -4 8 6 14 7 14 2 0 -5 7 -10 15 -10 10 0 14 6 10 16
-3 9 4 5 16 -9 11 -14 18 -19 14 -12 -4 7 0 12 10 12 9 0 13 -4 10 -10 -3 -6
1 -7 9 -4 9 3 14 9 11 13 -5 9 52 7 83 -3 18 -6 21 -4 16 11 -5 17 -5 17 6 0
9 -14 15 -16 26 -6 8 6 14 7 14 2 0 -5 7 -10 15 -10 10 0 14 6 10 16 -4 12 -2
11 9 -2 8 -11 17 -14 20 -8 5 7 15 7 32 1 33 -13 34 -13 28 7 -5 16 -4 16 6 0
9 -14 15 -16 26 -6 8 6 14 7 14 2 0 -5 7 -10 15 -10 10 0 14 6 10 16 -3 9 4 5
15 -9 11 -14 19 -20 18 -15 -2 6 2 10 7 10 5 0 9 -3 8 -7 -2 -4 4 -5 12 -1 13
4 13 8 3 22 -12 14 -11 15 6 1 10 -8 34 -15 53 -15 27 -1 33 2 28 14 -5 12 -3
13 6 4 6 -6 18 -9 27 -6 10 4 13 2 8 -5 -7 -12 13 -10 48 4 15 6 17 4 11 -7
-7 -12 -6 -12 7 -1 10 8 32 11 58 8 35 -4 40 -3 26 7 -14 10 -11 12 19 13 19
1 33 -2 30 -6 -2 -4 2 -7 10 -7 8 0 12 4 10 8 -3 4 2 10 11 13 8 3 12 2 9 -4
-3 -6 -1 -10 4 -10 6 0 11 4 11 9 0 6 12 6 30 1 23 -7 35 -4 56 13 28 22 74
30 74 12 0 -5 5 -3 10 5 5 8 10 11 10 6 0 -6 7 -1 16 10 8 10 13 14 10 7 -4
-6 -2 -14 4 -18 5 -3 10 2 10 11 0 16 1 16 15 -2 14 -18 14 -18 10 6 -4 24 -4
24 10 6 15 -19 15 -19 15 2 0 20 3 21 21 11 17 -8 20 -8 14 1 -5 8 -3 11 6 8
8 -3 20 2 27 11 8 9 11 10 7 4 -10 -20 13 -15 25 5 11 16 11 16 6 -1 -3 -9 -1
-17 4 -17 6 0 10 8 10 18 0 11 7 18 20 18 11 0 20 -5 20 -10 0 -11 14 2 16 15
1 5 2 11 3 14 0 3 11 0 24 -6 20 -11 21 -11 9 4 -11 13 -10 15 9 10 17 -5 20
-3 14 8 -7 11 -5 11 10 -1 15 -12 17 -12 10 -1 -6 11 -4 13 9 8 14 -6 17 -3
12 9 -5 14 -4 15 8 5 11 -9 16 -9 22 0 5 8 3 10 -7 5 -8 -4 -3 1 10 12 13 10
35 18 48 16 17 -2 23 2 19 11 -5 14 11 15 31 2 9 -5 11 -3 7 6 -3 8 3 20 13
28 16 12 17 12 6 -2 -10 -13 -10 -16 2 -16 7 0 14 3 13 6 -2 19 4 44 9 34 2
-7 9 -13 15 -13 6 0 7 7 4 16 -5 14 -4 15 7 5 11 -9 17 -8 26 2 6 8 7 18 3 23
-4 4 1 2 11 -6 14 -10 17 -11 15 0 -2 7 3 15 11 18 9 3 11 0 6 -8 -5 -8 -4
-11 3 -6 6 4 8 14 5 23 -5 12 -3 14 7 8 10 -6 12 -4 6 10 -5 15 -4 16 9 5 12
-10 16 -8 25 14 5 14 12 26 14 26 3 0 3 -7 0 -15 -4 -8 -3 -15 0 -15 4 0 11
11 16 25 8 22 13 24 29 16 16 -9 18 -8 14 8 -3 10 1 22 8 26 8 6 10 4 4 -4 -4
-7 4 -5 19 4 14 10 26 22 26 27 0 6 -8 4 -17 -3 -16 -13 -17 -12 -5 3 8 9 20
14 28 11 8 -3 14 0 14 7 0 7 8 9 23 5 20 -5 20 -5 -3 10 -22 14 -22 15 -3 10
12 -3 25 -1 29 6 4 7 3 9 -3 6 -5 -3 -10 0 -10 7 0 8 6 12 14 9 7 -3 13 0 13
5 0 6 10 14 21 17 17 6 19 9 8 16 -11 7 -11 9 2 9 8 0 23 15 33 33 15 30 15
22 -1 -20 -3 -10 4 -6 16 9 12 15 19 32 16 38 -4 6 -3 10 2 9 19 -3 33 2 33
12 0 5 -6 7 -12 3 -8 -5 -7 -1 1 10 14 17 15 17 28 0 15 -20 18 -7 4 16 -13
20 -2 34 15 19 12 -10 13 -9 8 6 -6 14 -4 16 6 10 10 -6 12 -4 6 10 -6 16 -4
16 10 4 16 -13 16 -12 5 8 -10 19 -9 22 4 17 10 -4 15 0 15 10 0 9 5 16 11 16
6 0 9 9 6 20 -4 17 -3 18 16 8 20 -10 21 -10 8 6 -11 13 -11 16 -1 14 7 -2 15
3 18 11 3 9 0 11 -9 7 -8 -4 -6 -1 3 7 10 8 14 18 10 23 -4 4 2 2 12 -6 18
-14 19 -14 7 9 -8 15 -9 21 -2 17 6 -4 11 0 11 9 0 10 5 13 12 9 8 -5 9 -2 5
10 -5 13 -1 19 13 23 19 5 20 6 3 20 -10 8 -13 12 -6 9 6 -3 18 -3 27 0 14 5
14 9 4 22 -11 13 -10 15 6 9 15 -6 16 -5 8 6 -7 8 -7 18 -2 27 6 8 10 11 10 6
0 -4 9 2 19 15 15 19 17 28 8 44 -9 19 -9 19 9 5 10 -8 16 -10 11 -5 -4 4 0
19 9 33 9 13 11 21 5 18 -6 -4 -11 -3 -11 1 0 5 8 13 19 20 10 6 18 22 17 35
-1 13 5 29 14 36 13 12 13 13 0 7 -8 -4 -4 3 10 15 14 12 18 20 9 17 -9 -3
-16 1 -16 8 0 7 6 11 13 8 9 -3 12 3 8 22 -4 21 -2 26 10 22 10 -4 13 -1 9 8
-3 8 -8 13 -12 10 -4 -2 -8 2 -8 10 0 10 5 11 18 4 12 -6 20 -5 24 1 4 6 1 9
-5 8 -7 -2 -14 5 -15 14 -2 11 2 15 12 11 17 -6 15 27 -2 39 -6 5 -5 8 4 8 7
0 11 6 7 15 -3 9 0 15 9 15 8 0 15 5 15 11 0 6 -8 8 -17 5 -17 -6 -17 -5 0 8
14 11 15 15 5 20 -7 3 -2 4 11 2 l23 -5 -23 26 c-13 15 -19 23 -13 20 7 -4 18
0 25 9 10 13 10 17 -1 24 -12 7 -12 11 0 25 15 18 22 57 9 49 -4 -2 -11 1 -15
7 -4 7 -3 9 3 6 6 -4 17 1 24 10 12 15 12 16 -6 10 -19 -7 -19 -6 -2 7 19 15
23 31 5 20 -10 -6 -10 -4 0 8 7 9 13 44 13 82 1 36 5 69 10 72 6 4 6 10 0 18
-11 13 -9 64 3 85 6 10 5 12 -2 7 -7 -4 -12 -1 -12 9 0 10 5 13 13 9 9 -6 9
-4 -1 8 -10 13 -10 17 0 21 10 4 10 6 -1 6 -11 1 -11 4 0 18 10 11 10 14 2 9
-15 -8 -17 3 -4 24 6 8 7 19 3 25 -11 18 -11 35 1 35 8 0 7 3 -2 9 -9 6 -10
11 -2 15 6 4 11 13 11 19 0 7 -4 6 -10 -3 -8 -11 -9 -8 -6 15 2 17 5 30 6 30
7 0 4 58 -4 62 -5 4 -6 1 -1 -7 5 -8 4 -11 -3 -6 -6 4 -9 13 -6 21 4 8 11 12
18 8 8 -5 8 -3 0 8 -9 12 -11 43 -3 74 1 6 -1 18 -6 29 -5 12 -3 21 6 27 11 7
11 9 1 9 -7 0 -12 8 -10 18 1 9 -1 23 -6 31 -6 10 -5 12 2 7 8 -5 10 11 8 53
-3 33 -7 64 -10 70 -4 5 -1 13 5 17 8 5 9 3 4 -6 -6 -9 -4 -11 4 -6 9 6 8 13
-6 29 -10 11 -13 17 -7 14 15 -9 27 20 13 29 -6 3 -9 15 -6 25 3 11 1 19 -5
19 -5 0 -6 5 -3 10 4 6 12 7 18 3 7 -3 3 4 -8 17 -11 13 -14 20 -6 15 11 -6
13 -4 8 8 -4 10 -1 17 6 17 8 0 6 4 -3 10 -8 5 -11 10 -5 10 5 0 4 5 -2 11 -9
9 -8 15 3 27 13 13 13 17 -3 35 -17 20 -17 20 1 13 20 -7 20 -7 0 15 -10 12
-13 19 -6 15 6 -4 12 -2 12 3 0 6 -5 11 -10 11 -7 0 -7 6 -1 19 6 10 7 21 4
25 -13 13 -10 44 4 39 9 -4 11 0 7 11 -3 9 -11 13 -16 10 -6 -4 -5 3 1 15 9
16 9 21 -1 21 -8 0 -6 5 5 11 9 5 17 15 17 22 0 7 -4 6 -10 -3 -6 -10 -9 4 -8
46 1 33 -2 66 -6 72 -4 7 -1 12 9 12 9 0 14 4 10 10 -3 5 -13 7 -23 4 -16 -5
-16 -5 1 6 18 12 25 36 6 24 -8 -5 -8 -1 0 14 9 17 8 23 -6 31 -16 9 -16 10 5
11 12 0 22 5 22 11 0 5 -4 8 -9 4 -6 -3 -9 17 -9 48 1 29 -2 59 -6 65 -4 7 -1
12 9 12 9 0 14 4 10 10 -3 5 -13 7 -23 4 -16 -5 -16 -5 1 6 18 12 25 36 6 24
-8 -5 -8 -1 0 14 9 17 8 23 -6 31 -16 9 -16 10 5 11 12 0 22 5 22 11 0 5 -5 7
-10 4 -7 -4 -9 14 -7 54 2 33 1 58 -3 56 -4 -2 -7 2 -7 10 0 8 4 12 9 9 4 -3
8 0 8 5 0 6 -4 11 -8 11 -5 0 -9 6 -9 14 0 9 6 12 16 8 14 -5 14 -3 2 11 -9
11 -12 31 -8 57 3 22 2 38 -2 35 -4 -2 -8 2 -8 10 0 8 4 12 9 9 4 -3 8 0 8 5
0 6 -4 11 -8 11 -5 0 -9 6 -9 14 0 9 6 12 16 8 14 -5 14 -3 2 11 -8 11 -11 28
-7 48 4 20 2 28 -5 23 -8 -4 -8 0 0 14 9 17 8 23 -6 31 -16 9 -15 10 6 11 24
0 24 0 5 16 -10 8 -13 13 -6 9 6 -3 12 -1 12 4 0 6 -4 11 -10 11 -5 0 -7 7 -4
15 4 8 11 12 17 8 6 -3 7 -1 3 6 -6 9 -12 9 -24 -1 -15 -11 -15 -10 0 8 16 19
16 21 1 37 -14 14 -14 18 -2 33 8 10 9 15 3 11 -7 -4 -15 0 -18 9 -4 10 -2 13
7 9 6 -4 1 4 -13 16 -17 15 -19 20 -7 16 9 -4 17 -2 17 3 0 6 -5 10 -11 10 -5
0 -7 5 -3 12 5 8 2 9 -10 5 -14 -5 -17 -3 -12 8 3 8 1 15 -5 15 -6 0 -8 7 -5
16 3 8 2 13 -2 10 -5 -3 -14 4 -22 14 -8 10 -17 17 -22 14 -7 -5 -12 10 -9 29
1 5 -3 6 -8 3 -5 -4 -11 -2 -13 4 -1 5 -15 11 -30 12 -15 1 -24 6 -22 10 3 5
10 5 16 2 7 -4 8 -2 4 5 -4 6 -12 9 -17 6 -5 -4 -9 -1 -9 6 0 9 -3 9 -14 0
-10 -8 -16 -9 -21 -1 -3 6 -10 8 -15 5 -5 -3 -12 0 -17 8 -4 7 -21 18 -38 25
-26 11 -28 10 -12 -1 25 -21 21 -31 -5 -13 -27 19 -42 21 -32 4 4 -7 -3 -4
-16 7 -13 11 -20 14 -16 7 6 -10 -1 -12 -34 -7 -33 5 -40 3 -34 -7 6 -10 4
-10 -9 1 -9 7 -17 10 -17 6 0 -4 -8 -1 -17 6 -9 8 -14 9 -11 4 5 -8 -30 -11
-107 -10 -62 0 -111 3 -109 6 1 3 -3 6 -11 6 -8 0 -12 -4 -9 -9 7 -11 -36 -6
-55 6 -10 6 -12 5 -7 -3 9 -14 -30 -11 -53 3 -10 6 -12 5 -7 -3 9 -14 -30 -11
-53 3 -10 6 -12 5 -7 -3 9 -14 -30 -11 -53 3 -9 6 -12 5 -8 0 3 -6 -38 -10
-108 -9 -62 0 -111 3 -109 6 1 3 -3 6 -11 6 -8 0 -12 -4 -9 -9 7 -11 -36 -6
-55 6 -10 6 -12 5 -7 -3 9 -14 -30 -11 -53 3 -10 6 -12 5 -7 -3 9 -14 -30 -11
-53 3 -10 6 -12 5 -7 -3 9 -14 -30 -11 -53 3 -9 6 -12 5 -8 0 3 -6 -38 -10
-108 -9 -62 0 -111 3 -109 6 1 3 -3 6 -11 6 -8 0 -12 -4 -9 -9 7 -11 -36 -6
-55 6 -10 6 -12 5 -7 -3 9 -14 -30 -11 -53 3 -10 6 -12 5 -7 -3 9 -14 -30 -11
-53 3 -10 6 -12 5 -7 -3 9 -14 -30 -11 -53 3 -9 6 -12 5 -8 0 3 -6 -38 -10
-108 -9 -62 0 -111 3 -109 6 1 3 -3 6 -11 6 -8 0 -12 -4 -9 -9 7 -11 -36 -6
-55 6 -10 6 -12 5 -7 -3 9 -14 -30 -11 -53 3 -10 6 -12 5 -7 -3 9 -14 -30 -11
-53 3 -10 6 -12 5 -7 -3 9 -14 -30 -11 -53 3 -9 6 -12 5 -8 0 3 -6 -38 -10
-108 -9 -62 0 -111 3 -109 6 1 3 -3 6 -11 6 -8 0 -12 -4 -9 -9 7 -11 -36 -6
-55 6 -10 6 -12 5 -7 -3 9 -14 -30 -11 -53 3 -10 6 -12 5 -7 -3 9 -14 -30 -11
-53 3 -10 6 -12 5 -7 -3 9 -14 -30 -11 -53 3 -9 6 -12 5 -8 0 3 -6 -38 -10
-108 -9 -62 0 -111 3 -109 6 1 3 -3 6 -11 6 -8 0 -12 -4 -9 -9 7 -11 -36 -6
-55 6 -10 6 -12 5 -7 -3 9 -14 -30 -11 -53 3 -10 6 -12 5 -7 -3 9 -14 -30 -11
-53 3 -10 6 -12 5 -7 -3 9 -14 -30 -11 -53 3 -9 6 -12 5 -8 0 3 -6 -38 -10
-108 -9 -62 0 -111 3 -109 6 1 3 -3 6 -11 6 -8 0 -12 -4 -9 -9 7 -11 -36 -6
-55 6 -10 6 -12 5 -7 -3 9 -14 -30 -11 -53 3 -10 6 -12 5 -7 -3 9 -14 -30 -11
-53 3 -10 6 -12 5 -7 -3 9 -14 -30 -11 -53 3 -9 6 -12 5 -8 0 3 -6 -38 -10
-108 -9 -62 0 -111 3 -109 6 1 3 -3 6 -11 6 -8 0 -12 -4 -9 -9 3 -5 -7 -7 -23
-4 -15 2 -28 5 -28 6 0 1 -8 3 -18 5 -9 2 -15 -1 -11 -6z m-122 -40 c-3 -5
-10 -7 -15 -3 -5 3 -7 10 -3 15 3 5 10 7 15 3 5 -3 7 -10 3 -15z m371 -229
c-6 -9 25 -23 33 -15 3 3 0 5 -6 5 -7 0 -12 4 -12 9 0 5 10 7 22 3 16 -4 19
-2 13 8 -5 9 -4 11 4 6 6 -4 9 -11 6 -16 -3 -4 2 -10 10 -13 9 -4 12 -1 9 7
-9 24 12 26 36 4 l23 -22 -6 23 c-4 18 -3 20 9 10 8 -6 14 -9 14 -5 0 3 11 1
25 -4 16 -6 27 -6 31 2 5 7 3 8 -6 3 -9 -5 -11 -4 -6 4 4 6 12 9 17 5 5 -3 7
-9 4 -14 -3 -4 2 -10 10 -13 9 -4 12 -1 9 7 -9 24 12 26 36 4 l23 -22 -5 22
c-4 15 -3 20 5 15 18 -12 97 -11 97 1 0 7 3 8 8 1 10 -14 46 -19 37 -5 -5 7 0
7 13 -1 12 -7 19 -17 16 -21 -3 -4 2 -5 10 -2 9 3 12 13 9 22 -4 13 -2 12 11
-3 10 -11 15 -13 11 -5 -4 8 1 6 9 -4 15 -18 16 -18 16 -2 0 9 5 14 10 11 6
-4 7 -11 4 -17 -5 -7 -2 -8 5 -4 7 5 10 15 7 25 -5 12 -2 11 9 -4 13 -17 13
-20 1 -27 -9 -5 -13 -15 -10 -23 4 -8 1 -15 -7 -15 -7 0 -9 -3 -6 -7 11 -10
-14 -33 -35 -33 -17 0 -18 -3 -9 -14 10 -12 9 -13 -7 -9 -11 2 -23 -1 -27 -8
-5 -7 -4 -10 3 -5 6 3 13 2 16 -3 4 -5 -5 -8 -19 -7 -13 2 -22 0 -20 -5 3 -4
-1 -10 -7 -13 -7 -3 -2 -3 12 0 22 4 23 4 7 -6 -10 -7 -25 -9 -34 -6 -12 5
-13 3 -5 -7 8 -9 8 -17 0 -27 -8 -13 -9 -13 -5 1 3 9 -1 16 -8 16 -7 0 -11 -6
-8 -14 3 -8 -2 -13 -13 -13 -16 0 -17 -2 -4 -10 13 -8 12 -10 -2 -10 -10 0
-18 -4 -18 -10 0 -5 -6 -10 -14 -10 -8 0 -18 -4 -21 -10 -3 -6 1 -7 12 -4 17
5 17 5 0 -6 -9 -6 -23 -8 -30 -4 -9 6 -9 5 0 -8 14 -17 8 -29 -12 -22 -8 3
-12 -2 -12 -13 1 -10 -5 -18 -13 -18 -22 -1 -41 -15 -35 -26 9 -14 -48 -10
-67 5 -10 7 -15 16 -11 19 3 4 -2 7 -12 7 -15 0 -16 2 -4 17 10 11 10 14 2 9
-7 -4 -13 -2 -13 3 0 6 -3 10 -7 10 -19 -3 -34 2 -29 10 3 4 -3 18 -13 29 -14
17 -20 19 -31 9 -10 -9 -11 -9 -6 1 9 15 -30 82 -47 82 -8 0 -8 -3 -2 -8 6 -4
17 -16 25 -27 14 -18 13 -19 -1 -8 -9 7 -20 9 -24 5 -5 -4 -5 -1 -1 6 4 7 1
15 -9 18 -11 5 -13 10 -5 19 10 13 4 25 -14 25 -6 0 -4 -5 4 -10 10 -7 11 -10
2 -10 -7 0 -15 7 -18 15 -4 8 -11 12 -18 8 -6 -4 -6 0 2 9 10 13 10 18 1 24
-8 4 -9 3 -5 -4 4 -7 0 -12 -10 -12 -10 0 -14 3 -11 6 3 4 -5 16 -19 27 -15
12 -23 25 -19 35 5 13 3 13 -11 1 -16 -13 -16 -12 -5 9 11 22 6 28 -21 23 -15
-2 -8 8 13 20 15 8 19 8 15 0 -4 -6 -3 -11 3 -11 5 0 12 6 14 13 3 7 6 4 6 -6
1 -10 6 -15 11 -12 6 4 7 11 4 17 -4 6 1 6 14 -1 25 -13 35 -14 28 -2 -3 4 6
6 21 3 19 -4 24 -2 18 8 -5 9 -4 11 4 6 6 -4 9 -11 6 -16z m1079 -12 c-3 -4 0
-8 6 -8 7 0 10 7 7 15 -7 18 9 30 19 14 5 -8 3 -9 -6 -4 -9 6 -11 4 -6 -4 6
-9 13 -8 29 6 11 10 18 13 14 8 -3 -6 -2 -17 4 -25 7 -13 9 -12 9 1 0 9 7 20
16 23 10 4 13 2 8 -6 -5 -7 -2 -9 8 -6 8 4 21 2 28 -2 8 -5 18 -4 24 3 6 7 10
10 9 8 -6 -9 19 -30 30 -25 7 2 17 -7 23 -21 11 -23 11 -24 -10 -13 -18 10
-19 9 -8 -4 10 -13 10 -17 -3 -22 -9 -3 -13 -10 -10 -16 8 -13 -4 -52 -14 -45
-5 2 -7 -7 -5 -21 2 -21 -1 -25 -16 -21 -12 3 -17 0 -15 -12 1 -9 -3 -22 -9
-30 -8 -11 -8 -13 1 -8 6 4 15 2 19 -4 4 -8 3 -9 -4 -5 -7 4 -12 2 -12 -4 0
-6 -5 -8 -12 -4 -8 5 -9 2 -5 -9 4 -12 1 -17 -11 -17 -11 0 -13 -3 -5 -8 18
-11 9 -48 -11 -44 -19 3 -22 -14 -3 -21 7 -3 5 -6 -5 -6 -10 -1 -18 -6 -18
-12 0 -5 6 -7 13 -3 9 6 9 5 0 -8 -7 -8 -9 -19 -5 -23 4 -5 1 -5 -5 -1 -7 4
-13 2 -13 -4 0 -6 -4 -9 -9 -5 -6 3 -8 -3 -6 -14 2 -11 -3 -22 -11 -25 -11 -4
-12 -10 -4 -25 8 -16 6 -23 -12 -35 -17 -12 -19 -18 -9 -30 10 -12 9 -14 -8
-9 -13 3 -21 1 -21 -6 0 -7 4 -10 8 -7 5 3 9 -2 9 -10 0 -9 -6 -13 -15 -9 -11
4 -13 0 -9 -15 4 -16 3 -19 -7 -10 -10 8 -12 5 -9 -14 3 -13 -1 -27 -8 -31 -8
-6 -10 -4 -4 5 5 9 4 11 -4 6 -9 -6 -9 -11 -1 -21 8 -10 8 -15 -1 -21 -8 -5
-9 -3 -4 6 5 9 4 11 -3 6 -9 -5 -9 -13 -2 -26 8 -16 7 -18 -4 -14 -11 4 -13 0
-9 -15 3 -13 1 -21 -6 -21 -7 0 -10 4 -7 8 3 5 -1 9 -9 9 -10 0 -12 -4 -5 -12
15 -18 5 -60 -12 -59 -8 1 -15 -6 -15 -15 0 -43 -3 -52 -15 -45 -10 6 -10 5
-1 -8 11 -12 10 -18 -5 -32 -10 -9 -22 -13 -26 -9 -4 4 -4 0 0 -10 3 -9 11
-14 18 -10 6 4 4 -2 -4 -13 -22 -29 -24 -30 -17 -11 4 12 3 16 -4 11 -6 -3 -9
-15 -6 -25 3 -12 1 -17 -6 -12 -6 4 -8 0 -4 -10 3 -9 1 -19 -5 -23 -7 -4 -8
-3 -4 4 4 7 2 12 -5 12 -7 0 -9 -9 -6 -22 5 -21 5 -21 -7 -5 -15 19 -31 24
-20 5 5 -9 2 -8 -9 1 -14 11 -15 16 -5 29 11 13 10 14 -10 3 -22 -12 -23 -11
-12 9 6 12 9 24 6 28 -3 3 -6 0 -6 -6 0 -7 -7 -12 -16 -12 -10 0 -14 6 -11 14
4 10 1 13 -9 9 -8 -3 -14 -2 -13 3 4 21 -2 35 -11 29 -5 -3 -10 1 -10 11 0 13
-3 14 -15 4 -8 -7 -16 -10 -16 -6 -5 22 -4 32 4 37 5 3 1 9 -8 12 -9 4 -13 3
-10 -3 3 -6 1 -10 -6 -10 -7 0 -9 8 -6 21 4 16 3 18 -9 8 -11 -9 -14 -9 -14 0
0 7 -4 10 -9 6 -6 -3 -8 3 -6 15 4 22 -10 36 -20 20 -4 -6 -11 -8 -16 -4 -6 4
-6 11 2 20 9 11 8 14 -5 14 -10 0 -14 5 -11 10 3 6 -4 10 -17 10 -18 0 -20 2
-8 10 13 8 12 10 -3 10 -12 0 -16 4 -11 13 6 9 5 9 -8 0 -18 -16 -32 -5 -17
14 9 10 8 13 -5 13 -10 0 -14 5 -11 10 3 6 -4 10 -17 10 -18 0 -20 2 -8 10 12
8 11 10 -7 10 -26 0 -38 15 -22 26 8 5 9 3 4 -6 -5 -9 -4 -11 4 -6 16 10 4 26
-14 19 -12 -4 -13 -1 -6 18 5 13 16 23 25 23 13 -1 14 2 4 20 -10 19 -10 20 5
7 11 -9 17 -10 18 -2 3 26 4 30 13 38 5 5 6 3 2 -4 -4 -7 -2 -13 3 -13 6 0 12
5 12 10 1 6 2 14 3 19 0 5 5 13 10 18 5 5 6 3 2 -4 -4 -7 -2 -13 3 -13 10 0
15 13 13 31 -2 12 36 40 56 42 17 1 19 4 9 16 -8 10 -8 13 -1 8 14 -8 38 18
30 32 -4 6 2 8 14 6 11 -2 19 1 17 8 -1 7 4 11 11 9 8 -1 11 2 7 8 -3 5 -1 10
5 10 6 0 8 5 4 12 -5 8 -2 9 11 4 15 -5 16 -4 5 9 -11 13 -10 14 4 9 18 -7 49
13 40 27 -3 5 -1 9 3 9 5 0 14 12 21 28 10 25 11 25 6 2 -6 -24 -6 -24 9 -5 8
11 13 24 9 29 -3 5 2 7 11 3 11 -4 14 -2 10 8 -3 9 4 18 20 24 14 5 28 15 32
21 3 5 10 8 14 6 4 -3 8 1 8 9 0 8 -5 12 -11 9 -6 -3 -2 1 8 10 10 8 22 13 27
11 4 -3 11 0 15 6 5 8 3 9 -6 4 -8 -5 -11 -3 -8 6 3 8 12 13 21 13 10 -1 14 5
12 18 -4 17 -2 18 12 6 9 -7 14 -8 11 -3 -4 6 1 19 9 30 12 16 14 16 10 3 -3
-10 -1 -20 5 -24 7 -4 8 -3 4 4 -4 7 -2 12 4 12 7 0 10 7 7 14 -4 10 -1 13 8
9 8 -3 13 -8 10 -12 -2 -4 3 -8 11 -8 9 0 13 6 10 14 -3 8 -1 11 4 8 6 -3 10
0 10 7 0 10 3 9 9 -2 6 -8 7 -18 5 -22z m892 16 c-6 16 -4 17 9 6 8 -7 15 -10
15 -6 0 3 12 1 26 -4 15 -6 23 -6 19 -1 -3 5 0 13 6 17 7 4 9 3 5 -4 -3 -6 -2
-13 4 -17 5 -3 10 -1 10 4 0 6 5 11 11 11 5 0 7 -6 4 -12 -4 -7 1 -4 10 7 17
20 17 20 11 -5 -6 -21 -5 -23 6 -9 7 8 21 18 32 22 14 6 17 4 12 -10 -5 -15
-4 -15 9 1 13 18 20 15 16 -6 0 -5 4 -8 9 -8 6 0 10 7 10 16 0 8 5 12 10 9 6
-4 8 -10 6 -14 -3 -4 0 -13 6 -21 8 -12 9 -12 4 3 -3 9 -1 17 4 17 6 0 10 -3
10 -7 0 -5 18 -17 40 -27 22 -11 40 -23 40 -28 0 -5 -12 -1 -27 8 l-28 16 25
-21 c15 -12 33 -18 45 -15 18 5 18 5 4 -7 -15 -13 -15 -15 2 -31 21 -20 27
-10 7 11 -11 10 -10 11 2 6 8 -3 22 -20 30 -38 8 -17 25 -37 37 -43 13 -6 20
-14 16 -18 -4 -4 0 -4 10 0 9 3 17 2 17 -4 0 -6 -6 -13 -12 -15 -7 -3 -3 -6
10 -6 12 -1 22 -7 22 -15 0 -8 7 -17 16 -20 8 -3 12 -11 8 -17 -5 -8 -3 -9 5
-4 13 8 54 -28 44 -39 -4 -3 -1 -7 5 -7 27 -3 31 -4 39 -13 5 -5 3 -6 -4 -2
-8 5 -13 1 -13 -10 0 -10 3 -14 6 -11 4 3 16 -5 27 -19 12 -15 25 -23 35 -19
13 5 13 3 1 -11 -12 -15 -12 -16 7 -10 18 5 21 3 20 -16 0 -13 5 -23 12 -24 6
-1 17 -2 23 -3 6 0 9 -10 6 -22 -4 -16 -3 -18 9 -8 11 9 14 9 14 0 0 -7 5 -9
10 -6 6 3 10 -1 10 -9 0 -9 5 -16 10 -16 6 0 10 -6 10 -14 0 -8 5 -18 12 -22
7 -4 8 -3 4 4 -4 7 -2 12 5 12 6 0 9 -8 6 -19 -3 -12 5 -26 24 -42 27 -22 28
-23 8 -37 -16 -11 -18 -17 -8 -28 10 -12 9 -13 -4 -9 -8 4 -18 1 -23 -6 -5 -8
-3 -10 6 -4 9 6 11 4 6 -4 -5 -7 -14 -10 -21 -7 -20 7 -26 -5 -12 -22 11 -13
9 -14 -13 -2 -14 7 -22 9 -17 5 4 -5 -3 -20 -15 -33 -13 -14 -17 -22 -9 -17
10 6 12 4 7 -4 -5 -7 -14 -10 -21 -7 -20 7 -26 -5 -12 -22 8 -11 8 -14 0 -9
-6 4 -18 1 -26 -7 -8 -8 -18 -12 -23 -8 -5 4 -3 0 4 -9 11 -14 9 -16 -10 -15
-18 1 -23 -4 -22 -22 1 -16 -2 -20 -11 -12 -14 12 -26 3 -19 -15 3 -7 0 -16
-7 -21 -8 -5 -10 -3 -4 7 5 8 -3 4 -17 -9 -13 -12 -28 -19 -32 -15 -4 4 -4 -1
0 -11 6 -15 4 -17 -7 -11 -11 7 -12 6 -2 -7 16 -18 5 -32 -14 -17 -10 9 -13 7
-13 -6 0 -38 -61 -53 -75 -18 -5 14 -3 14 12 2 16 -13 17 -12 4 4 -7 9 -20 17
-28 17 -8 0 -12 4 -8 9 3 5 -2 17 -11 25 -8 9 -11 16 -6 16 5 0 17 -10 26 -22
l17 -23 -11 23 c-6 13 -17 25 -25 28 -8 3 -11 12 -8 20 4 10 0 12 -13 7 -17
-6 -17 -5 -5 11 13 15 12 18 -7 23 -12 3 -22 10 -22 15 0 5 4 7 9 4 14 -9 6
23 -9 37 -11 9 -11 8 0 -8 14 -18 13 -19 -1 -8 -9 7 -18 11 -20 8 -3 -2 -5 4
-5 15 0 10 5 16 11 12 5 -3 4 1 -2 10 -7 8 -10 18 -7 21 4 4 -5 11 -19 16 -19
8 -24 15 -20 31 4 13 -2 27 -16 39 -16 14 -18 21 -9 24 8 4 7 6 -4 6 -10 1
-18 6 -18 12 0 5 6 7 13 4 6 -4 4 0 -5 8 -10 8 -18 21 -18 30 0 8 -5 17 -10
19 -6 2 -12 13 -13 26 -1 20 -9 27 -30 23 -5 -1 -6 3 -2 9 3 6 12 7 18 3 7 -4
5 1 -3 12 -8 10 -14 20 -13 21 7 11 -12 34 -23 30 -9 -3 -11 0 -7 11 5 12 3
14 -8 8 -11 -7 -11 -5 1 10 12 15 12 17 1 10 -11 -6 -13 -2 -9 19 4 21 3 24
-8 15 -11 -9 -14 -8 -14 5 0 9 -6 16 -12 17 -9 0 -9 2 1 6 10 4 8 9 -10 20
-15 9 -17 12 -5 8 16 -4 17 -3 7 9 -7 8 -9 21 -5 27 4 8 3 9 -4 5 -7 -4 -12
-1 -12 9 0 10 -5 13 -12 9 -8 -5 -9 -2 -4 11 5 14 4 15 -7 7 -10 -8 -13 -6
-13 8 0 10 4 16 8 14 4 -3 8 0 8 5 0 6 -8 11 -19 11 -21 0 -35 36 -19 47 7 4
8 1 3 -7 -5 -9 -4 -11 4 -6 16 11 3 26 -16 19 -10 -4 -14 -2 -10 4 4 6 0 16
-8 23 -18 15 -20 44 -2 34 7 -4 9 -3 4 2 -5 5 -13 9 -18 9 -5 0 -9 5 -10 10 0
6 -7 17 -15 26 -13 14 -13 17 -1 22 8 3 20 0 27 -6 10 -10 10 -8 1 10 -16 31
-14 40 5 17 15 -18 15 -18 10 0z m755 7 c7 12 9 12 9 0 0 -8 3 -11 6 -8 4 3
15 2 25 -4 15 -8 19 -6 19 6 0 9 5 13 10 10 6 -4 8 -9 6 -13 -2 -4 19 -6 47
-6 29 1 57 -2 64 -8 14 -11 27 7 17 25 -5 8 -2 8 9 -2 9 -7 17 -11 17 -7 0 3
12 1 26 -4 15 -6 23 -6 19 -1 -3 5 -1 13 5 16 6 4 10 3 9 -2 -3 -18 2 -27 9
-16 9 15 64 5 55 -11 -3 -6 -2 -7 3 -3 5 5 10 13 10 18 3 19 4 20 17 12 20
-12 37 -12 37 0 1 7 7 1 14 -12 11 -20 14 -21 19 -7 5 11 3 15 -5 10 -7 -5 -8
-3 -3 6 7 11 10 11 19 -2 9 -15 11 -15 21 -1 10 13 14 13 20 3 5 -9 4 -11 -3
-6 -8 5 -10 1 -5 -10 6 -15 7 -15 15 0 8 14 12 15 26 4 14 -11 15 -10 8 7 -6
16 -5 18 5 8 7 -7 17 -13 22 -13 4 0 5 6 1 13 -4 6 3 3 16 -8 13 -11 20 -14
16 -7 -4 6 -2 13 3 13 19 2 51 1 56 -1 9 -5 25 -7 45 -9 17 -1 19 -3 8 -15 -7
-8 -17 -11 -23 -8 -5 3 -4 -2 4 -12 13 -15 12 -18 -8 -23 -17 -4 -19 -8 -10
-19 10 -12 9 -13 -5 -8 -12 5 -19 0 -23 -15 -4 -15 -11 -20 -22 -16 -8 3 -12
3 -9 -1 4 -4 3 -15 -3 -26 -8 -14 -14 -17 -23 -9 -10 9 -13 6 -11 -13 2 -18
-1 -23 -11 -19 -9 3 -14 0 -12 -8 2 -8 -3 -13 -11 -11 -9 2 -11 -3 -7 -14 5
-14 4 -15 -9 -4 -9 7 -18 10 -22 6 -3 -3 -1 -6 5 -6 7 0 12 -5 12 -11 0 -5 -4
-7 -10 -4 -5 3 -10 1 -10 -5 0 -6 -5 -8 -12 -4 -9 5 -8 2 1 -9 12 -15 12 -17
-4 -11 -13 5 -16 4 -11 -4 4 -7 1 -12 -9 -12 -8 0 -21 -11 -27 -25 -6 -14 -15
-25 -20 -25 -5 0 -6 -6 -2 -12 5 -9 2 -8 -9 1 -10 8 -20 11 -24 7 -3 -3 -1 -6
5 -6 7 0 12 -5 12 -11 0 -6 -6 -9 -14 -6 -10 4 -14 0 -11 -12 2 -14 -1 -17
-15 -14 -10 3 -21 0 -24 -6 -9 -14 -56 -15 -56 -1 0 12 -37 50 -49 50 -5 0
-11 9 -14 20 -3 11 -12 20 -21 20 -9 0 -16 5 -16 12 0 6 -3 8 -7 5 -3 -4 -12
1 -19 11 -17 21 -18 36 -2 26 7 -4 8 -3 4 4 -4 6 -13 9 -21 5 -8 -3 -15 0 -15
7 0 6 -5 8 -12 4 -9 -6 -9 -3 0 9 12 14 11 16 -7 12 -11 -2 -24 1 -27 7 -4 7
-2 8 4 4 7 -4 12 -2 12 3 0 6 -7 11 -15 11 -8 0 -15 7 -15 15 0 9 -7 18 -15
21 -8 4 -12 11 -8 18 4 6 -2 4 -12 -4 -11 -9 -16 -10 -11 -2 4 6 2 12 -3 12
-6 0 -11 6 -11 14 0 13 -27 31 -42 28 -4 -1 -4 6 -1 15 4 11 3 14 -5 9 -7 -4
-12 -2 -12 4 0 6 -4 8 -10 5 -6 -3 -7 1 -4 9 3 9 11 13 18 9 6 -4 5 1 -3 11
-12 15 -12 17 0 14 8 -2 13 3 11 11 -3 12 -1 12 13 1 14 -12 18 -11 26 1z
m193 -7 c3 -8 2 -12 -4 -9 -6 3 -10 10 -10 16 0 14 7 11 14 -7z m-2336 -59
c-3 -3 -9 2 -12 12 -6 14 -5 15 5 6 7 -7 10 -15 7 -18z m1026 3 c-5 -8 -2 -9
9 -5 12 5 17 1 17 -14 0 -11 8 -23 17 -26 15 -6 15 -7 -3 -14 -17 -7 -16 -8 6
-8 20 -1 22 -3 10 -11 -12 -8 -12 -10 5 -10 17 0 17 -2 5 -10 -13 -8 -13 -10
2 -10 9 0 20 -5 24 -12 5 -8 2 -9 -11 -4 -15 5 -16 4 -5 -9 7 -8 17 -12 24 -8
6 4 5 -1 -3 -10 -12 -15 -11 -17 4 -17 13 0 16 -6 12 -20 -4 -17 -2 -20 16
-14 20 6 20 6 4 -10 -21 -21 -22 -27 -2 -20 10 4 13 0 10 -15 -3 -15 0 -18 13
-14 15 6 16 5 2 -12 -12 -15 -12 -17 -1 -10 11 6 13 4 8 -8 -3 -10 -2 -17 3
-17 6 0 10 5 10 12 0 6 3 8 6 5 4 -4 1 -14 -7 -24 -8 -9 -9 -14 -4 -12 6 3 19
-3 29 -14 16 -17 17 -19 3 -14 -9 3 -17 2 -17 -3 0 -6 8 -10 18 -10 15 0 15
-2 2 -11 -12 -8 -10 -10 10 -5 24 5 24 4 6 -9 -18 -14 -18 -15 -2 -15 9 0 14
-4 11 -10 -3 -5 0 -10 7 -10 9 0 9 -3 -2 -10 -12 -8 -10 -10 10 -10 14 0 21
-4 15 -8 -5 -4 -11 -13 -13 -21 -2 -11 0 -12 11 -2 12 9 14 6 12 -19 -2 -25 1
-30 15 -25 10 3 17 0 17 -9 0 -9 -4 -13 -9 -10 -4 3 -8 1 -8 -4 0 -6 7 -13 16
-16 8 -3 12 -10 9 -16 -3 -5 -1 -10 4 -10 6 0 11 -7 11 -16 0 -8 4 -13 9 -10
5 3 11 -1 14 -9 4 -10 1 -12 -11 -8 -15 6 -15 5 -3 -10 7 -9 18 -14 25 -10 6
4 5 -1 -2 -10 -12 -14 -11 -16 6 -12 19 3 23 -9 10 -30 -7 -11 19 -52 30 -47
3 2 8 -2 11 -9 2 -7 -1 -9 -8 -5 -16 10 -1 -27 17 -40 8 -6 12 -16 8 -22 -3
-6 3 -16 14 -22 11 -6 20 -18 20 -26 0 -9 5 -12 13 -8 9 6 9 4 -1 -8 -10 -13
-10 -18 -1 -24 8 -5 10 -3 4 7 -5 8 -4 11 1 6 5 -5 9 -18 10 -30 2 -36 15 -59
32 -52 12 4 13 3 2 -10 -10 -12 -9 -15 5 -15 13 0 16 -6 12 -21 -5 -17 -3 -18
9 -8 12 10 15 10 12 -2 -2 -8 -7 -17 -13 -21 -6 -5 -5 -8 3 -8 8 0 10 -5 6
-12 -5 -9 -3 -9 9 1 15 12 17 10 13 -18 -2 -23 2 -34 20 -46 23 -15 24 -47 1
-42 -6 1 -12 -4 -13 -10 -1 -7 -2 -14 -4 -15 -1 -2 -3 -12 -5 -23 -2 -11 -9
-21 -15 -23 -6 -2 -16 -10 -24 -17 -7 -8 -17 -11 -21 -7 -5 4 -5 -1 -1 -12 5
-14 2 -17 -9 -12 -9 3 -13 2 -10 -4 3 -6 2 -10 -4 -10 -6 0 -8 -7 -4 -15 3 -9
2 -15 -3 -14 -22 4 -35 -2 -28 -13 5 -8 2 -9 -10 -5 -10 4 -15 3 -11 -3 3 -6
1 -10 -5 -10 -6 0 -8 -5 -4 -12 5 -8 2 -9 -9 -5 -13 5 -17 1 -17 -14 0 -11 -4
-17 -10 -14 -5 3 -10 1 -10 -5 0 -6 -5 -8 -12 -4 -10 6 -10 4 0 -8 10 -13 10
-18 1 -24 -8 -5 -9 -3 -4 6 5 8 3 11 -6 8 -8 -3 -13 -11 -12 -17 2 -6 -2 -12
-7 -12 -20 -3 -25 -4 -38 -13 -11 -6 -11 -11 0 -24 10 -12 10 -14 1 -8 -9 5
-13 1 -13 -10 0 -10 -3 -14 -6 -11 -10 10 -44 -12 -44 -29 0 -9 -5 -12 -12 -8
-8 5 -9 2 -5 -10 4 -10 3 -15 -3 -11 -6 4 -27 -11 -48 -31 -20 -21 -41 -37
-45 -36 -5 1 -5 -3 -1 -9 5 -9 2 -10 -11 -5 -14 5 -16 4 -7 -7 14 -16 6 -28
-13 -21 -7 3 -15 -2 -18 -10 -4 -11 -1 -14 11 -10 9 2 6 -1 -8 -8 -14 -7 -31
-19 -38 -28 -10 -13 -15 -11 -38 15 -14 17 -23 24 -20 18 4 -7 5 -13 1 -13 -3
0 -10 12 -15 26 -6 15 -14 22 -22 18 -7 -5 -9 -2 -5 9 4 11 2 14 -9 10 -9 -3
-14 1 -14 15 0 11 -8 26 -17 33 -11 10 -14 10 -9 2 14 -24 -7 -13 -40 21 -18
19 -36 31 -40 27 -4 -3 -1 5 6 19 10 20 10 23 0 13 -17 -16 -45 11 -36 34 5
12 3 13 -7 5 -10 -9 -16 -7 -27 8 -7 10 -18 16 -24 13 -6 -4 -5 1 3 10 12 15
11 17 -8 17 -14 0 -21 6 -21 20 0 11 -6 19 -12 17 -7 -1 -12 4 -11 10 2 7 -1
12 -6 10 -5 -1 -17 7 -26 18 -9 11 -14 13 -10 5 3 -8 0 -7 -7 3 -22 31 -40 53
-33 40 4 -9 1 -11 -11 -6 -15 6 -15 7 2 21 18 13 18 14 -5 7 -19 -6 -23 -4
-18 8 3 9 -1 21 -9 27 -8 7 -14 9 -14 4 0 -5 -5 -1 -11 9 -6 9 -25 24 -42 32
-18 9 -24 13 -14 10 15 -4 16 -1 7 15 -6 11 -8 20 -4 20 4 0 -1 9 -11 20 -10
11 -13 20 -7 20 6 0 9 7 5 16 -3 9 0 20 8 25 12 8 12 11 -1 20 -12 9 -11 10 8
6 12 -3 20 -2 18 2 -3 4 -1 13 4 21 5 8 5 21 0 30 -6 12 -5 17 5 17 8 0 11 -5
8 -10 -3 -6 -1 -7 5 -3 9 5 9 13 2 26 -15 28 -12 36 5 14 11 -14 15 -15 14 -4
-5 48 2 72 17 66 10 -4 13 -2 8 6 -5 8 -1 9 12 5 17 -6 17 -5 2 5 -15 11 -15
13 0 25 15 12 15 12 -2 6 -13 -4 -17 -3 -12 5 4 7 14 12 22 12 17 0 19 20 2
21 -10 0 -10 2 0 6 6 2 9 10 5 16 -5 8 -2 8 8 0 13 -10 16 -10 16 2 0 8 -4 15
-9 15 -5 0 -6 5 -3 10 4 6 11 8 16 5 5 -3 6 1 3 9 -4 9 0 18 10 22 12 5 13 10
6 24 -8 16 -7 18 10 15 11 -2 18 0 15 5 -3 5 -1 11 4 15 6 3 7 13 4 22 -5 11
-3 14 6 8 10 -6 11 -3 2 14 -10 17 -9 20 4 15 11 -5 14 -2 8 12 -5 13 -3 15 8
9 12 -7 12 -6 1 7 -10 12 -10 17 1 27 8 6 18 7 23 3 4 -4 2 2 -6 12 -10 13
-10 17 -2 12 7 -4 12 -2 12 4 0 6 5 8 12 4 7 -4 8 -3 4 5 -4 6 -12 9 -17 6 -5
-4 -9 -1 -9 4 0 6 10 11 23 12 12 0 17 3 10 5 -7 3 -9 12 -6 20 3 7 9 11 14 8
5 -3 4 7 -1 22 -10 25 -9 26 6 13 16 -13 17 -12 12 8 -4 13 0 27 9 34 11 10
11 14 1 20 -10 7 -8 9 5 9 11 0 15 4 11 12 -5 7 -2 9 8 6 12 -5 14 1 13 28 -2
18 1 31 6 28 5 -3 9 2 9 10 0 10 6 13 18 9 14 -5 13 -3 -3 10 -18 15 -18 16
-2 17 15 0 16 4 7 20 -9 16 -8 19 6 13 12 -4 15 -3 10 5 -4 8 0 12 10 12 16 0
16 1 -2 15 -16 13 -16 14 -1 9 13 -5 16 -2 10 12 -4 12 -3 15 5 10 8 -5 10 -2
6 9 -4 8 -1 21 5 29 6 7 7 17 3 21 -4 5 -1 5 6 1 10 -6 10 -11 2 -21 -8 -10
-8 -15 1 -21 7 -4 9 -3 5 4 -3 6 -2 13 3 16 5 4 8 18 5 31 -3 18 3 32 21 49
18 17 22 26 14 32 -8 5 -9 3 -4 -6 5 -9 4 -11 -4 -6 -6 4 -9 12 -5 17 3 5 9 7
14 4 4 -3 10 2 14 10 3 8 8 15 11 15 4 0 3 -5 -1 -12z m-2248 -73 c1 -8 -2
-15 -6 -15 -5 0 -8 9 -7 20 1 21 10 18 13 -5z m1495 -18 c-10 -9 -11 -8 -5 6
3 10 9 15 12 12 3 -3 0 -11 -7 -18z m1549 -7 c0 -5 -2 -10 -4 -10 -3 0 -8 5
-11 10 -3 6 -1 10 4 10 6 0 11 -4 11 -10z m1267 -83 c3 -33 8 -51 16 -63 4 -7
1 -11 -6 -10 -6 0 -12 -3 -12 -9 0 -5 6 -9 15 -7 12 2 12 1 2 -6 -8 -5 -13
-12 -13 -16 4 -25 0 -36 -11 -30 -7 4 -8 3 -4 -5 4 -6 12 -9 17 -6 16 11 10
-7 -8 -22 -10 -8 -12 -12 -5 -8 9 4 12 -8 13 -44 2 -61 2 -62 13 -80 6 -9 4
-18 -8 -26 -15 -12 -15 -14 -1 -29 14 -14 14 -16 1 -16 -20 0 -29 -17 -15 -26
8 -4 9 -3 5 4 -4 7 -2 12 4 12 6 0 8 -12 5 -30 -4 -20 -1 -30 7 -31 7 0 3 -4
-9 -9 -13 -5 -23 -15 -22 -22 0 -10 2 -10 6 0 9 23 18 12 17 -20 -1 -18 3 -38
8 -44 6 -8 4 -11 -4 -10 -7 0 -13 -3 -13 -9 0 -5 7 -9 15 -7 12 2 12 1 2 -6
-8 -5 -13 -12 -13 -16 4 -25 0 -36 -11 -30 -7 4 -8 3 -4 -5 4 -6 12 -9 17 -6
16 11 10 -7 -8 -22 -10 -8 -12 -11 -5 -8 11 6 13 -2 11 -31 -2 -28 1 -38 10
-36 7 1 9 -2 6 -8 -4 -6 -13 -9 -19 -7 -7 3 -12 -3 -12 -15 1 -12 -6 -23 -14
-25 -13 -4 -13 -3 0 7 13 10 12 11 -6 7 -17 -3 -21 0 -20 17 1 16 -5 21 -21
20 -18 -1 -21 2 -13 16 8 15 6 17 -9 13 -19 -5 -36 21 -25 38 3 5 2 9 -3 8
-20 -3 -53 15 -53 28 0 9 -6 13 -14 10 -9 -4 -17 2 -21 14 -4 10 -11 19 -16
19 -5 0 -9 5 -9 11 0 5 5 7 12 3 7 -4 8 -3 4 4 -4 6 -14 8 -23 5 -13 -5 -15
-2 -11 15 5 18 3 20 -12 12 -15 -8 -17 -6 -14 13 2 12 2 16 -2 10 -7 -15 -34
7 -34 29 0 10 -3 9 -11 -2 -8 -12 -10 -9 -6 13 3 22 2 25 -9 16 -13 -11 -19
-3 -16 22 1 4 -8 15 -20 25 -12 11 -18 14 -15 7 4 -6 2 -15 -4 -19 -7 -4 -9
-3 -5 4 3 6 2 13 -3 16 -19 12 3 60 24 52 9 -3 12 2 10 14 -2 12 1 17 10 14 7
-3 16 0 20 5 3 6 10 9 14 6 5 -2 6 7 3 20 -4 21 -1 24 14 18 14 -5 16 -3 11
11 -4 9 -3 15 1 13 4 -3 18 -1 31 4 19 8 21 12 11 24 -11 13 -10 14 4 9 11 -4
16 -2 14 7 -2 8 3 13 11 11 9 -2 11 3 7 13 -3 9 -2 14 3 11 4 -3 17 2 27 10
10 9 13 12 5 8 -9 -5 -12 -3 -7 4 4 7 13 12 21 12 8 0 17 4 20 10 3 6 -1 7
-12 4 -17 -5 -17 -5 0 6 9 6 22 8 29 4 8 -5 9 -2 5 10 -4 10 -1 19 8 22 8 4
12 10 9 15 -4 8 17 14 38 10 4 0 5 6 2 14 -4 8 -1 15 5 15 6 0 11 -5 11 -12 0
-6 3 -8 6 -5 4 4 1 13 -6 22 -11 13 -10 14 5 9 13 -5 16 -4 11 4 -5 8 -2 10 8
6 9 -3 13 -11 9 -17 -3 -6 -1 -7 6 -3 9 6 9 11 1 21 -8 10 -7 14 2 18 7 3 13
6 13 6 0 1 1 -9 2 -22z m-4031 4 c-3 -5 1 -11 9 -14 10 -4 12 -1 8 11 -4 9 5
4 19 -11 16 -17 25 -35 21 -45 -4 -13 -2 -12 10 3 16 20 16 20 10 -2 -3 -14
-1 -23 6 -23 7 0 9 5 5 12 -5 7 -3 8 5 4 7 -5 10 -15 7 -23 -5 -11 -1 -13 17
-8 17 5 19 4 7 -4 -8 -6 -12 -11 -7 -12 4 -1 12 -3 17 -4 6 -1 13 -3 16 -4 4
0 1 -7 -5 -15 -10 -12 -8 -14 11 -9 17 3 19 2 9 -5 -11 -8 -9 -11 8 -17 12 -3
19 -11 16 -16 -3 -5 2 -6 11 -2 14 5 16 2 12 -14 -3 -12 0 -20 8 -20 7 0 11 4
8 9 -4 5 3 4 15 -4 l21 -13 -22 -7 c-21 -5 -21 -6 -3 -9 11 -1 29 -2 40 -1 11
0 14 -2 8 -4 -16 -7 -17 -30 -1 -40 7 -4 8 -3 4 4 -4 7 -3 12 3 12 5 0 13 -9
16 -20 4 -11 11 -17 17 -14 7 5 9 1 5 -9 -6 -16 4 -22 28 -17 6 1 5 -4 -2 -11
-14 -14 -6 -42 10 -32 6 3 7 1 3 -6 -4 -6 -12 -9 -17 -6 -5 4 -9 -3 -9 -14 0
-14 -12 -24 -42 -35 -24 -9 -33 -14 -20 -12 27 5 29 -10 2 -19 -11 -3 -25 -15
-30 -26 -6 -10 -18 -19 -26 -19 -11 0 -14 -6 -10 -16 4 -11 -1 -18 -14 -21
-11 -3 -20 -9 -20 -14 0 -5 -7 -9 -16 -9 -9 0 -12 -5 -8 -12 5 -8 2 -9 -11 -4
-16 6 -16 4 -4 -11 8 -9 9 -14 3 -10 -7 4 -14 0 -18 -8 -3 -8 -13 -15 -22 -15
-10 0 -14 -5 -10 -15 3 -9 0 -15 -10 -15 -9 0 -18 -9 -21 -20 -7 -28 -22 -25
-17 3 4 20 4 20 -6 -2 -6 -14 -8 -31 -5 -39 5 -13 3 -13 -12 -1 -15 12 -16 12
-11 -2 5 -13 2 -16 -13 -12 -15 4 -17 8 -8 19 9 11 7 15 -6 20 -13 5 -14 9 -3
15 11 7 11 9 -1 9 -11 0 -11 3 0 17 11 13 11 17 2 20 -7 3 -13 9 -13 14 0 6 4
8 8 5 4 -2 8 4 8 15 0 10 -4 19 -8 19 -5 0 -4 9 2 20 9 16 8 22 -4 26 -14 5
-14 8 1 22 10 11 12 17 4 20 -6 2 -8 9 -4 15 11 17 13 37 4 37 -4 0 -7 10 -5
23 1 12 3 22 4 22 1 0 3 8 5 18 2 9 0 17 -4 17 -10 0 -8 31 3 48 4 7 1 15 -8
18 -14 5 -14 8 0 21 9 9 12 19 7 22 -12 9 -15 34 -3 26 5 -3 10 -1 10 4 0 6
-6 11 -12 11 -9 0 -8 4 2 10 12 8 12 10 1 10 -11 0 -11 3 0 17 11 13 11 17 2
20 -7 3 -13 9 -13 14 0 6 4 8 8 5 4 -2 8 4 8 15 0 10 -4 19 -9 19 -5 0 -4 6 2
14 9 11 9 15 -1 19 -10 4 -11 7 0 18 15 16 16 33 1 23 -8 -4 -8 0 0 15 7 11
14 21 17 21 3 0 3 -4 0 -9z m-272 -23 c-3 -4 -9 -8 -15 -8 -5 0 -9 4 -9 8 0 5
7 9 15 9 8 0 12 -4 9 -9z m1371 -19 c-4 -5 -12 -9 -18 -8 -9 0 -8 2 1 6 6 2 9
10 6 15 -4 7 -2 8 5 4 6 -4 9 -12 6 -17z m1889 -105 c5 -14 4 -15 -9 -4 -17
14 -19 20 -6 20 5 0 12 -7 15 -16z m456 -23 c0 -5 -7 -12 -16 -15 -14 -5 -15
-4 -4 9 14 17 20 19 20 6z m-3716 -13 c-3 -4 -9 -8 -15 -8 -5 0 -9 4 -9 8 0 5
7 9 15 9 8 0 12 -4 9 -9z m2791 -57 c3 -5 0 -13 -6 -17 -7 -4 -9 -3 -5 4 3 5
0 13 -6 15 -9 4 -10 6 -1 6 6 1 14 -3 18 -8z m1166 -74 c-10 -9 -11 -8 -5 6 3
10 9 15 12 12 3 -3 0 -11 -7 -18z m-486 -43 l17 -27 -25 19 c-14 11 -23 22
-20 27 7 11 9 9 28 -19z m15 -58 c0 -3 -4 -8 -10 -11 -5 -3 -10 -1 -10 4 0 6
5 11 10 11 6 0 10 -2 10 -4z m445 -27 c-4 -5 -12 -9 -18 -8 -9 0 -8 2 1 6 6 2
9 10 6 15 -4 7 -2 8 5 4 6 -4 9 -12 6 -17z m-2020 -80 c-4 -5 -12 -9 -18 -8
-9 0 -8 2 1 6 6 2 9 10 6 15 -4 7 -2 8 5 4 6 -4 9 -12 6 -17z m1478 6 c-3 -9
-8 -14 -10 -11 -3 3 -2 9 2 15 9 16 15 13 8 -4z m-748 -33 c-3 -3 -11 0 -18 7
-9 10 -8 11 6 5 10 -3 15 -9 12 -12z m-1792 -29 c-5 -15 -3 -16 8 -5 11 10 20
5 51 -25 21 -20 38 -43 38 -51 0 -7 5 -10 12 -6 8 5 9 2 4 -11 -5 -15 -4 -16
9 -5 13 11 16 11 13 -1 -2 -8 3 -13 11 -11 12 3 12 0 2 -12 -14 -17 1 -31 24
-22 9 3 12 0 8 -10 -3 -7 0 -14 5 -14 17 0 69 -53 77 -77 3 -13 11 -23 16 -23
6 0 7 5 4 10 -12 20 2 9 31 -22 16 -18 22 -27 14 -20 -22 19 -32 14 -12 -6 9
-10 23 -17 30 -14 7 2 12 -5 12 -18 0 -11 5 -18 10 -15 6 3 10 1 10 -5 0 -6 4
-9 9 -5 5 3 13 0 17 -6 4 -8 3 -9 -4 -5 -7 4 -12 2 -12 -5 0 -6 8 -9 20 -6 11
3 18 1 15 -3 -3 -5 -1 -11 5 -15 6 -4 8 -10 5 -15 -7 -11 19 -31 44 -33 11 0
17 -5 15 -9 -3 -4 0 -8 7 -8 7 0 9 -3 6 -6 -4 -4 -15 -1 -24 7 -17 13 -17 12
-2 -6 9 -11 14 -26 11 -34 -3 -8 0 -11 7 -7 7 5 9 1 5 -8 -3 -9 -9 -14 -13
-12 -3 2 -11 -7 -18 -20 -8 -18 -8 -23 0 -18 7 3 5 0 -4 -8 -9 -7 -14 -19 -11
-27 3 -9 0 -11 -8 -6 -10 6 -12 4 -7 -8 4 -12 1 -17 -11 -17 -15 0 -15 -2 -2
-10 13 -9 13 -10 0 -10 -12 0 -13 -2 -1 -9 11 -7 9 -10 -7 -15 -11 -4 -26 -14
-34 -23 -10 -13 -7 -12 17 3 22 14 27 15 18 3 -7 -9 -9 -20 -5 -24 4 -5 2 -6
-3 -2 -6 3 -17 -3 -24 -15 -7 -11 -8 -18 -3 -14 5 3 9 -1 9 -8 0 -8 -7 -12
-14 -9 -10 4 -13 -1 -9 -20 3 -19 1 -24 -9 -21 -16 7 -29 -12 -15 -21 6 -4 8
-11 4 -16 -3 -5 -9 -7 -14 -4 -10 6 -23 -43 -14 -57 4 -6 3 -8 -4 -4 -6 3 -13
2 -17 -4 -3 -5 -1 -10 4 -10 16 0 13 -12 -10 -40 -11 -14 -18 -19 -14 -13 4 9
1 11 -9 7 -14 -5 -14 -8 0 -21 14 -14 12 -19 -13 -45 -15 -15 -33 -26 -41 -23
-7 2 -10 1 -7 -4 3 -5 1 -12 -5 -16 -5 -3 -10 -1 -10 5 0 6 -5 8 -10 5 -6 -4
-8 -10 -6 -14 3 -4 -1 -8 -9 -8 -11 0 -12 5 -3 21 10 19 9 19 -4 8 -12 -9 -18
-10 -23 -2 -5 8 -11 7 -22 -1 -12 -10 -16 -10 -24 2 -6 10 -9 11 -9 1 0 -7 -5
-10 -12 -6 -7 4 -8 3 -4 -5 4 -6 12 -8 18 -5 7 4 8 2 4 -4 -8 -13 -36 -5 -36
10 0 5 -5 6 -10 3 -8 -5 -7 -12 2 -23 12 -15 11 -16 -4 -3 -10 7 -16 17 -13
21 3 4 -1 13 -8 19 -10 8 -14 7 -14 -4 0 -8 4 -12 9 -9 4 3 5 -2 2 -10 -5 -12
-9 -11 -25 5 -17 17 -23 18 -35 8 -13 -10 -17 -10 -25 2 -6 10 -9 11 -9 1 0
-7 -5 -10 -12 -6 -7 4 -8 3 -4 -5 4 -6 12 -8 18 -5 7 4 8 2 4 -4 -8 -13 -36
-5 -36 10 0 5 -5 6 -10 3 -8 -5 -7 -12 2 -23 12 -15 11 -16 -4 -3 -10 7 -16
17 -13 21 3 4 -2 14 -11 21 -12 10 -15 10 -12 -2 2 -8 -3 -13 -10 -11 -8 1
-11 -2 -8 -7 4 -5 2 -12 -4 -16 -9 -6 -15 8 -11 29 1 5 -5 4 -13 -3 -9 -7 -13
-18 -10 -25 3 -6 -1 -3 -8 6 -13 15 -15 15 -24 0 -9 -13 -12 -13 -19 -2 -5 9
-4 11 3 6 7 -4 12 -3 12 2 0 6 -7 13 -16 16 -9 3 -12 2 -9 -4 4 -7 -3 -9 -19
-6 -15 3 -24 1 -21 -5 4 -5 1 -9 -4 -9 -6 0 -11 5 -11 10 0 6 -5 10 -11 10 -5
0 -8 -4 -5 -9 3 -5 -1 -11 -9 -14 -9 -4 -12 -1 -8 9 4 12 1 13 -23 3 -45 -17
-65 -19 -58 -7 5 7 1 9 -9 5 -10 -3 -17 -3 -17 2 0 4 -7 8 -15 8 -11 0 -12 -4
-3 -14 8 -11 7 -12 -6 -7 -9 3 -16 14 -16 23 0 13 -2 13 -9 2 -5 -8 -7 -21 -4
-30 4 -14 3 -14 -5 -1 -6 8 -8 19 -4 25 3 5 -3 3 -13 -5 -17 -14 -18 -13 -12
2 4 13 2 15 -10 11 -11 -4 -14 -2 -9 5 5 8 1 10 -10 5 -11 -4 -15 -3 -10 5 3
6 2 14 -4 17 -8 5 -7 11 1 22 10 12 10 16 -2 24 -12 7 -12 9 0 9 8 0 11 3 8 7
-4 3 -2 12 4 19 7 8 6 14 -2 20 -8 4 -9 3 -5 -4 4 -7 2 -12 -3 -12 -12 0 -14
13 -4 24 11 11 14 48 3 41 -6 -4 -6 3 0 21 8 21 8 29 -2 36 -10 6 -10 8 1 8 8
0 11 3 8 7 -4 3 -2 12 4 19 7 8 6 14 -2 20 -8 4 -9 3 -5 -4 4 -7 2 -12 -3 -12
-12 0 -14 13 -4 24 10 9 15 48 6 43 -9 -6 -9 44 -1 59 3 5 4 26 2 47 -1 20 1
35 5 32 5 -2 7 8 5 23 -2 26 -2 26 12 8 17 -23 19 -13 3 16 -7 12 -7 18 -1 14
15 -9 42 4 42 21 0 9 6 13 15 9 13 -4 13 -2 5 14 -8 16 -7 18 9 15 11 -2 26 4
33 13 11 15 11 15 -3 5 -13 -10 -16 -10 -16 2 0 7 3 14 6 13 20 -2 31 3 26 12
-4 6 -1 9 7 8 7 -2 12 5 12 14 -1 10 3 16 10 15 6 -1 10 4 8 11 -1 8 2 11 8 7
8 -5 7 -12 -1 -23 -12 -16 -12 -16 5 -1 9 9 19 25 21 35 2 10 4 21 4 23 1 2 7
-2 15 -8 12 -10 14 -8 12 12 -2 14 2 24 10 24 7 0 10 -5 7 -10 -4 -6 -1 -7 6
-3 7 5 10 14 7 21 -5 13 30 52 49 55 6 1 9 6 7 12 -1 5 2 7 7 4 5 -3 15 2 22
11 12 14 12 16 0 8 -10 -6 -12 -4 -7 4 5 7 14 10 21 7 17 -6 35 13 28 30 -4
10 0 12 13 7 12 -4 15 -3 10 5 -4 8 0 12 11 12 15 0 16 2 3 10 -11 7 -11 10
-2 10 8 0 10 5 6 13 -6 9 -5 9 8 0 17 -14 29 -8 22 12 -3 7 0 16 7 21 7 4 10
3 6 -3 -3 -5 0 -10 7 -10 8 0 12 7 8 15 -3 10 -1 13 6 8 7 -4 10 1 7 15 -4 17
-2 19 11 8 8 -6 17 -9 21 -5 3 3 1 6 -5 6 -7 0 -12 5 -12 11 0 5 5 7 10 4 6
-3 10 1 10 9 0 10 6 13 17 9 10 -4 14 -2 10 4 -6 9 -1 14 20 22 1 1 0 -7 -4
-16z m2821 -29 c4 -10 2 -13 -6 -8 -7 4 -8 3 -4 -5 4 -6 12 -9 17 -5 5 3 7 9
4 14 -3 5 -1 11 5 15 5 3 10 1 10 -6 0 -6 8 -9 20 -6 11 3 23 0 27 -5 3 -6 2
-8 -3 -5 -6 3 -16 2 -24 -4 -12 -7 -10 -9 8 -9 12 0 22 -6 22 -14 0 -8 9 -18
20 -21 11 -4 17 -11 14 -17 -4 -6 2 -8 17 -3 24 7 24 7 4 -9 -16 -13 -17 -15
-2 -10 13 5 16 2 11 -12 -5 -18 -5 -18 6 -1 6 9 16 15 21 11 6 -4 5 -11 -2
-20 -10 -12 -10 -15 2 -12 8 2 13 -3 11 -10 -1 -8 2 -11 7 -8 5 4 12 2 16 -4
4 -6 11 -8 16 -4 5 3 9 2 8 -3 -3 -18 3 -47 7 -36 8 18 42 -18 35 -37 -4 -13
-2 -13 12 -1 9 7 18 11 18 7 8 -39 20 -66 28 -61 5 2 13 -7 19 -20 12 -26 32
-34 32 -13 0 6 3 8 6 5 4 -4 1 -13 -5 -21 -10 -12 -9 -14 7 -9 14 3 22 -1 27
-16 3 -12 11 -19 16 -16 5 4 9 -1 9 -10 0 -10 5 -13 13 -9 7 5 6 0 -3 -11 -14
-17 -13 -18 3 -12 11 4 17 1 17 -9 0 -8 -4 -13 -8 -10 -5 3 -9 -1 -9 -8 0 -8
7 -12 16 -9 12 3 12 2 -2 -7 -9 -6 -22 -8 -27 -5 -5 3 -7 0 -4 -9 6 -15 -28
-40 -39 -29 -4 3 -4 -4 -2 -16 3 -15 0 -19 -8 -14 -18 11 -38 12 -31 2 3 -5
11 -6 17 -2 8 5 8 2 0 -9 -7 -8 -10 -18 -6 -22 4 -4 0 -4 -9 -1 -9 4 -19 1
-23 -4 -3 -6 -11 -8 -17 -5 -7 5 -8 2 -4 -5 9 -14 -17 -47 -49 -63 -11 -6 -4
4 15 22 l35 31 -38 -27 c-22 -16 -36 -33 -33 -40 3 -8 1 -13 -4 -11 -5 1 -15
-6 -22 -16 -7 -10 -22 -19 -33 -21 -10 -1 -21 -9 -23 -17 -3 -11 -1 -11 8 1 6
8 10 10 8 4 -5 -16 -84 -84 -97 -84 -7 0 -10 -4 -7 -9 3 -5 -1 -11 -9 -14 -9
-4 -13 -1 -9 11 2 9 -3 2 -11 -15 -14 -30 -25 -38 -49 -34 -5 1 -6 -5 -2 -14
4 -11 1 -15 -12 -13 -11 2 -16 -3 -15 -15 0 -10 -1 -16 -4 -14 -9 9 -44 -34
-38 -46 4 -7 -1 -3 -9 7 -15 18 -16 19 -16 2 0 -11 -5 -16 -13 -13 -8 3 -14
-1 -14 -9 0 -7 5 -10 11 -7 6 3 6 0 -1 -7 -10 -10 -15 -11 -27 -1 -11 9 -16 9
-22 0 -5 -8 -3 -10 7 -4 8 5 10 4 6 0 -4 -5 -14 -10 -22 -11 -11 -2 -12 2 -5
16 7 14 6 17 -8 16 -11 -1 -16 5 -14 18 2 11 -1 15 -8 11 -6 -3 -10 -3 -9 2 4
24 -2 53 -11 48 -6 -3 -10 4 -10 17 0 19 2 20 11 8 9 -13 10 -13 6 0 -2 8 -13
15 -24 14 -16 -1 -19 4 -15 24 4 21 2 24 -14 18 -10 -4 -15 -4 -11 0 4 4 2 13
-4 21 -6 7 -8 13 -4 13 4 0 2 7 -5 15 -11 13 -10 15 6 10 12 -4 11 -1 -4 6
-13 7 -21 18 -18 26 3 8 -1 16 -9 20 -11 4 -13 9 -5 18 7 9 5 16 -7 26 -17 13
-17 13 -3 -5 14 -18 14 -18 -6 -6 -13 8 -20 21 -18 36 1 14 -2 22 -8 18 -6 -4
-8 2 -3 17 4 16 3 20 -3 11 -7 -11 -10 -10 -16 3 -3 9 -3 21 0 27 3 5 -3 12
-15 15 -11 3 -18 9 -15 14 3 5 10 6 16 3 6 -4 8 -2 4 4 -3 6 -16 9 -29 7 -20
-4 -20 -3 -5 8 15 12 15 14 -4 26 -11 7 -17 15 -14 18 3 3 14 0 23 -8 16 -12
17 -12 7 1 -20 29 -10 54 31 78 28 16 33 21 15 17 -23 -6 -24 -5 -5 7 11 7 22
13 25 13 12 1 44 24 35 25 -6 0 -17 -6 -25 -12 -12 -11 -12 -10 -2 3 6 9 9 19
5 23 -4 4 1 4 11 0 13 -5 17 -4 12 4 -5 8 -1 10 10 5 14 -5 16 -3 11 12 -6 15
-5 16 7 6 13 -11 15 -9 11 7 -3 15 1 20 14 17 14 -2 17 2 16 19 -2 14 3 23 11
23 7 0 10 -5 7 -10 -4 -6 -1 -7 6 -3 7 5 10 15 6 23 -4 13 -3 14 9 4 12 -10
14 -8 9 11 -3 16 -2 19 5 10 7 -11 11 -9 15 8 4 16 11 21 23 16 14 -5 15 -4 5
8 -14 16 -4 25 22 21 15 -3 16 -1 5 13 -11 13 -11 14 0 8 16 -10 55 23 48 40
-3 9 1 11 11 7 9 -4 14 -2 11 3 -4 5 1 18 9 29 15 19 15 19 9 -5 -7 -23 -6
-24 6 -5 7 11 13 22 14 25 2 10 16 40 19 40 2 0 6 -7 9 -16z m-967 -50 c-3 -3
-12 -4 -19 -1 -8 3 -5 6 6 6 11 1 17 -2 13 -5z m1457 -20 c3 -8 2 -12 -4 -9
-6 3 -10 10 -10 16 0 14 7 11 14 -7z m-590 -13 c3 -5 -2 -15 -12 -22 -15 -12
-16 -12 -5 2 7 9 10 19 6 22 -3 4 -4 7 0 7 3 0 8 -4 11 -9z m-364 -15 c0 -2
-7 -7 -16 -10 -8 -3 -12 -2 -9 4 6 10 25 14 25 6z m-2555 -45 c3 -5 2 -12 -3
-15 -5 -3 -9 1 -9 9 0 17 3 19 12 6z m2110 -31 c3 -5 2 -10 -4 -10 -5 0 -13 5
-16 10 -3 6 -2 10 4 10 5 0 13 -4 16 -10z m-2761 -202 c-3 -4 -9 -8 -15 -8 -5
0 -9 4 -9 8 0 5 7 9 15 9 8 0 12 -4 9 -9z m1303 -23 c0 -8 -4 -12 -9 -9 -5 3
-6 10 -3 15 9 13 12 11 12 -6z m408 -13 c-3 -3 -11 0 -18 7 -9 10 -8 11 6 5
10 -3 15 -9 12 -12z m1146 -9 c10 -11 10 -14 2 -9 -7 4 -13 2 -13 -3 0 -6 -5
-11 -11 -11 -8 0 -9 4 0 13 6 8 8 17 4 20 -3 4 -4 7 -1 7 3 0 12 -8 19 -17z
m-1096 -63 c3 -6 -1 -7 -9 -4 -18 7 -21 14 -7 14 6 0 13 -4 16 -10z m40 -30
c3 -5 1 -10 -4 -10 -6 0 -11 5 -11 10 0 6 2 10 4 10 3 0 8 -4 11 -10z m-1801
-22 c-3 -4 -9 -8 -15 -8 -5 0 -9 4 -9 8 0 5 7 9 15 9 8 0 12 -4 9 -9z m2981
-148 c-8 -13 8 -13 22 1 14 14 53 -53 48 -82 -4 -17 -2 -19 11 -8 12 10 13 9
8 -6 -5 -13 -4 -16 4 -11 7 4 12 2 12 -3 0 -6 -4 -11 -10 -11 -5 0 -1 -9 10
-20 11 -11 20 -25 20 -31 0 -5 5 -7 12 -3 7 5 8 3 2 -7 -12 -20 -14 -40 -3
-33 5 3 6 10 3 16 -4 6 -2 8 4 4 6 -3 9 -15 7 -26 -2 -11 1 -20 6 -20 6 0 7
-4 4 -10 -6 -9 8 -14 28 -11 5 1 6 -3 2 -9 -3 -6 -12 -7 -18 -3 -7 4 -6 0 2
-10 7 -9 10 -17 6 -17 -4 0 -2 -6 4 -13 6 -8 7 -18 3 -22 -4 -5 -1 -5 6 -1 10
6 10 11 1 22 -8 10 -8 14 0 14 10 0 15 -14 12 -34 -1 -5 4 -13 11 -18 9 -7 6
-8 -10 -5 -18 4 -21 3 -12 -8 8 -10 8 -15 -1 -21 -7 -4 -9 -3 -6 3 4 6 0 14
-9 17 -8 3 -13 2 -10 -3 3 -5 -1 -11 -9 -14 -9 -4 -12 -1 -8 9 5 14 2 14 -31
0 -35 -15 -42 -11 -37 18 1 5 -5 4 -13 -3 -9 -7 -13 -18 -11 -25 3 -6 0 -3 -7
6 -11 15 -13 15 -23 1 -10 -13 -14 -13 -20 -3 -5 9 -4 11 3 6 7 -4 12 -3 12 2
0 6 -7 13 -16 16 -9 3 -12 2 -9 -4 4 -7 -3 -9 -19 -6 -15 3 -24 1 -21 -5 10
-14 -5 -11 -22 6 -12 13 -18 13 -30 3 -12 -9 -16 -9 -24 3 -6 10 -9 11 -9 1 0
-7 -5 -10 -12 -6 -7 4 -8 3 -4 -5 4 -6 12 -8 18 -5 7 4 8 2 4 -4 -8 -13 -36
-5 -36 10 0 5 -5 6 -10 3 -8 -5 -7 -12 2 -23 12 -15 11 -16 -4 -3 -10 7 -16
17 -13 21 3 4 -1 13 -8 19 -10 8 -14 7 -14 -4 0 -8 4 -12 9 -9 4 3 5 -2 2 -10
-5 -12 -9 -11 -25 5 -12 12 -25 17 -32 12 -12 -8 -17 -9 -38 -12 -5 0 -7 -5
-4 -11 3 -6 -1 -7 -9 -4 -9 3 -16 11 -16 16 0 6 -6 6 -14 -1 -11 -9 -16 -9
-22 1 -4 7 -4 10 0 6 5 -4 14 -2 21 5 10 9 9 14 -4 25 -9 7 -11 11 -6 10 13
-4 55 38 47 47 -4 3 1 3 10 0 9 -4 19 -1 24 6 5 8 3 10 -7 4 -8 -4 -1 4 14 18
18 16 26 31 21 38 -4 7 -3 9 4 5 6 -3 20 6 31 20 12 15 21 22 21 17 0 -5 -9
-18 -20 -28 -11 -10 -18 -20 -16 -22 8 -8 52 44 48 57 -3 7 -1 11 4 8 9 -5 41
23 47 40 1 4 6 6 11 4 5 -2 6 4 3 12 -4 9 -3 15 1 15 20 -3 33 2 27 11 -3 6
-1 10 4 10 6 0 11 -5 11 -12 0 -6 3 -8 6 -5 4 4 1 13 -6 22 -11 13 -10 14 4 9
9 -4 16 -2 14 4 -2 5 1 10 7 10 5 0 12 10 17 21 4 12 10 21 13 21 4 0 3 -4 0
-10z m1329 -52 c-1 -26 -8 -55 -15 -65 -12 -15 -12 -16 6 -9 11 4 16 4 12 0
-4 -4 -2 -13 3 -19 8 -9 6 -14 -4 -18 -11 -4 -13 -1 -9 11 3 9 3 14 -2 10 -12
-11 -15 -98 -3 -98 5 0 6 6 2 13 -4 6 -3 9 1 4 12 -10 13 -57 1 -64 -5 -3 -6
-1 -2 5 3 6 2 13 -3 17 -6 3 -8 -4 -5 -17 13 -66 13 -65 -10 -63 -14 2 -23 -3
-23 -11 0 -11 4 -11 16 -2 9 7 8 3 -3 -8 -13 -13 -20 -15 -23 -6 -3 6 -9 12
-14 12 -6 0 -7 -6 -3 -12 4 -7 4 -10 -1 -6 -4 4 -15 2 -23 -5 -13 -10 -14 -9
-8 2 6 9 5 12 -5 9 -8 -3 -13 -12 -11 -19 2 -9 -3 -8 -16 4 -10 9 -22 14 -27
10 -4 -5 -6 -1 -3 7 4 11 0 16 -13 16 -21 0 -26 -12 -7 -18 7 -3 3 -7 -9 -10
-12 -3 -22 -3 -21 1 2 19 -3 31 -12 26 -6 -4 -8 -10 -5 -15 3 -4 -2 -10 -10
-13 -9 -4 -12 -1 -9 7 3 8 0 17 -7 22 -7 4 -10 3 -6 -2 3 -6 2 -16 -4 -24 -7
-13 -9 -13 -10 0 -1 8 -1 19 0 24 1 5 -5 4 -13 -3 -9 -7 -13 -18 -11 -25 3 -6
0 -3 -7 6 -11 15 -13 15 -25 0 -12 -15 -12 -15 -7 3 6 20 5 20 -10 1 -9 -11
-16 -15 -16 -8 0 6 -8 9 -17 6 -15 -5 -16 -4 -3 5 13 9 13 11 0 11 -9 1 -5 6
10 15 l25 15 -25 -3 c-14 -2 -19 -2 -12 0 7 3 9 9 6 15 -4 7 -2 8 5 4 6 -4 14
0 17 9 5 11 10 13 19 5 10 -8 13 -6 11 7 0 10 5 17 12 15 8 -1 11 2 8 7 -3 5
2 15 11 22 14 12 16 12 8 -1 -4 -8 1 -6 12 5 11 11 16 22 11 23 -4 2 3 13 17
24 14 10 30 16 36 12 8 -5 9 -3 4 6 -6 10 -4 12 10 6 16 -6 16 -4 4 11 -9 11
-10 14 -1 9 8 -5 12 -1 12 11 1 17 2 16 16 -2 16 -20 16 -19 9 4 -5 16 -4 21
4 17 6 -4 11 0 11 9 0 9 4 14 8 11 4 -2 19 5 32 15 24 20 24 20 2 9 -13 -6
-26 -10 -28 -7 -3 2 13 12 36 21 25 10 44 25 50 40 6 17 16 24 32 22 22 -1 24
-5 22 -48z m-2716 22 c-1 -18 5 -27 32 -38 16 -7 32 -22 35 -33 4 -10 11 -19
16 -19 5 0 9 -5 9 -11 0 -5 -5 -7 -12 -3 -7 4 -8 3 -4 -4 5 -8 13 -9 25 -3 13
7 18 6 19 -5 1 -7 3 -20 4 -28 1 -8 8 -12 16 -9 11 5 11 7 0 14 -9 6 -9 9 -1
9 20 0 24 -18 7 -35 -15 -15 -14 -15 12 -9 16 4 26 3 22 -1 -4 -4 4 -16 17
-27 13 -10 23 -24 21 -31 -1 -7 -1 -9 1 -4 8 13 22 7 17 -7 -4 -11 0 -13 15
-9 13 3 21 1 21 -6 0 -7 -4 -10 -9 -6 -5 3 -13 0 -17 -6 -4 -8 -3 -9 4 -5 7 4
12 2 12 -4 0 -6 11 -16 25 -22 29 -13 34 -28 6 -21 -10 3 -22 -1 -26 -8 -5 -8
-4 -10 3 -5 7 4 20 2 29 -4 16 -9 15 -10 -4 -5 -19 5 -22 3 -17 -12 5 -16 4
-16 -5 -2 -6 10 -21 15 -37 13 -17 -1 -24 2 -21 10 3 6 -3 12 -14 12 -14 0
-16 -3 -6 -15 9 -11 9 -13 0 -8 -6 4 -14 1 -16 -5 -3 -8 -6 -5 -6 6 -1 11 -6
16 -15 13 -7 -3 -19 0 -25 6 -9 9 -11 8 -6 -5 4 -10 4 -18 0 -18 -4 0 -14 8
-22 18 -12 15 -13 15 -11 0 2 -9 -1 -16 -7 -15 -5 1 -9 6 -7 11 2 5 -4 4 -12
-4 -18 -14 -22 0 -5 17 7 7 -4 5 -24 -4 -20 -9 -34 -21 -31 -27 3 -6 -4 2 -16
17 -18 22 -25 25 -36 16 -8 -6 -11 -15 -9 -20 3 -4 -5 -13 -17 -19 -20 -10
-21 -9 -6 3 10 8 13 18 9 26 -6 10 -10 9 -14 -3 -4 -9 -12 -16 -18 -16 -8 0
-8 4 -1 13 8 10 6 13 -9 13 -12 0 -18 -5 -15 -13 8 -19 -11 -16 -23 5 -6 10
-11 12 -11 4 0 -9 -5 -10 -19 -3 -10 6 -22 7 -26 3 -5 -4 -5 -1 -1 6 5 7 14
11 20 9 7 -3 13 1 13 9 0 7 -5 10 -11 7 -6 -4 -5 0 2 9 10 13 10 17 0 22 -7 3
-3 4 10 2 19 -4 21 -2 11 10 -10 12 -9 17 1 27 10 9 11 9 6 0 -5 -9 -2 -11 9
-7 13 5 13 9 3 18 -7 6 -11 10 -9 9 2 -2 14 11 27 28 18 25 21 36 13 57 -8 22
-8 23 6 12 13 -11 14 -10 9 5 -6 14 -4 16 7 10 11 -7 11 -5 -1 10 -14 17 -13
18 2 13 21 -9 31 2 17 19 -9 10 -8 13 0 13 7 0 9 5 5 12 -5 8 -2 9 11 4 15 -5
16 -4 5 9 -7 8 -17 12 -23 8 -5 -3 -8 -2 -4 3 5 9 76 13 75 4z m972 0 c0 -5
-5 -10 -11 -10 -5 0 -7 5 -4 10 3 6 8 10 11 10 2 0 4 -4 4 -10z m1671 -13
c-10 -9 -11 -8 -5 6 3 10 9 15 12 12 3 -3 0 -11 -7 -18z m-1791 -110 c0 -2
-10 -12 -22 -23 l-23 -19 19 23 c18 21 26 27 26 19z m-968 -24 c-6 -2 -10 -9
-7 -13 3 -5 1 -11 -5 -15 -5 -3 -10 0 -10 8 0 17 10 27 24 26 6 0 5 -3 -2 -6z
m675 -25 c-3 -8 -6 -5 -6 6 -1 11 2 17 5 13 3 -3 4 -12 1 -19z m2160 15 c-4
-3 -1 -13 6 -22 11 -14 10 -14 -5 -2 -21 15 -23 31 -6 31 6 0 8 -3 5 -7z
m-2422 -133 c3 -6 -1 -7 -9 -4 -18 7 -21 14 -7 14 6 0 13 -4 16 -10z m-320
-40 c3 -5 -1 -10 -10 -10 -9 0 -13 5 -10 10 3 6 8 10 10 10 2 0 7 -4 10 -10z
m-862 -15 c-3 -9 -8 -14 -10 -11 -3 3 -2 9 2 15 9 16 15 13 8 -4z m130 2 c7 3
9 2 4 -2 -4 -5 -16 -9 -27 -10 -16 -1 -17 1 -8 13 8 9 14 10 16 3 2 -6 9 -8
15 -4z m150 0 c3 -7 -3 -13 -14 -13 -13 0 -15 3 -7 13 6 7 12 13 13 13 2 0 5
-6 8 -13z m1770 0 c7 3 9 2 4 -2 -11 -12 -47 -13 -54 -2 -3 6 -1 7 5 3 6 -3
14 -1 18 6 6 9 9 9 12 0 2 -7 9 -9 15 -5z m150 0 c3 -7 -3 -13 -14 -13 -13 0
-15 3 -7 13 6 7 12 13 13 13 2 0 5 -6 8 -13z m-2497 -279 c-4 7 -1 12 9 12 10
0 14 -5 9 -12 -6 -10 -4 -10 7 0 7 6 17 12 22 12 4 0 5 -6 1 -12 -5 -10 -4
-10 6 -1 7 6 19 9 28 6 11 -5 13 -3 7 6 -4 8 4 6 19 -4 15 -10 26 -13 26 -6 0
15 40 14 41 -1 0 -10 2 -10 6 0 2 6 9 12 14 12 6 0 7 -6 3 -12 -5 -10 -4 -10
6 -1 10 9 18 9 33 1 16 -8 19 -8 14 5 -4 11 0 13 16 9 12 -3 25 -10 29 -16 5
-8 8 -7 8 2 0 6 5 12 11 12 5 0 7 -6 3 -12 -5 -10 -4 -10 6 -1 9 8 19 9 32 2
12 -6 18 -6 18 1 0 15 40 12 41 -2 0 -10 2 -10 6 0 2 6 9 12 14 12 6 0 7 -6 3
-12 -6 -10 -4 -10 7 0 7 6 17 12 22 12 4 0 5 -6 1 -12 -5 -9 -2 -9 9 1 9 7 17
10 17 6 0 -4 7 -2 15 5 8 7 15 11 16 9 2 -9 9 -49 10 -56 4 -24 -2 -35 -17
-29 -14 5 -15 4 -4 -9 11 -13 10 -14 -3 -9 -13 5 -15 -1 -12 -32 2 -21 0 -32
-5 -25 -5 9 -10 10 -14 2 -4 -6 -4 -16 -1 -21 3 -6 -1 -13 -10 -16 -13 -6 -14
-8 -3 -15 10 -7 8 -9 -6 -9 -16 0 -17 -2 -5 -17 10 -11 10 -14 2 -9 -8 4 -13
2 -13 -4 0 -6 -5 -8 -10 -5 -6 4 -7 11 -4 17 4 7 2 8 -5 4 -8 -5 -9 -12 -3
-19 8 -10 9 -49 2 -67 -1 -3 -2 -9 -1 -13 1 -4 -9 -2 -21 4 -21 11 -22 11 -9
-4 7 -10 9 -17 3 -17 -5 0 -13 -7 -16 -16 -6 -15 -4 -15 11 -3 16 12 17 12 6
-2 -7 -9 -10 -19 -6 -23 4 -4 -1 -4 -10 0 -15 5 -17 2 -13 -19 3 -19 1 -24
-10 -20 -10 3 -12 0 -9 -10 4 -8 -1 -17 -11 -21 -14 -5 -14 -9 -3 -23 12 -14
12 -16 0 -8 -11 6 -13 4 -7 -10 5 -15 4 -16 -9 -5 -14 11 -14 10 -6 -13 8 -21
7 -28 -7 -37 -15 -8 -15 -11 -2 -21 13 -9 12 -10 -2 -5 -10 3 -20 1 -23 -4 -4
-6 0 -10 7 -10 10 0 9 -3 -2 -9 -8 -6 -18 -7 -22 -5 -4 3 -5 -2 -2 -10 3 -9
11 -13 18 -9 6 3 1 -5 -12 -19 -12 -13 -19 -28 -15 -33 5 -4 2 -4 -6 0 -11 6
-13 4 -7 -11 4 -10 4 -15 0 -12 -4 4 -16 3 -27 -3 -14 -8 -18 -8 -13 0 4 6 0
11 -8 11 -9 0 -16 -6 -16 -13 0 -8 -7 -14 -15 -14 -10 0 -12 4 -5 12 11 13 3
25 -14 25 -6 0 -4 -5 4 -11 12 -9 10 -10 -8 -6 -16 4 -22 2 -19 -7 3 -7 -1
-13 -9 -13 -10 0 -12 7 -8 21 4 16 3 17 -4 7 -6 -8 -17 -11 -26 -8 -9 4 -16 1
-16 -5 0 -7 -7 -3 -15 8 -13 16 -14 16 -9 2 3 -10 1 -18 -5 -18 -6 0 -11 8
-12 18 0 14 -2 14 -9 -3 -6 -14 -9 -15 -10 -5 -1 10 -4 9 -10 -5 -8 -18 -9
-18 -10 5 l-2 25 -8 -25 c-6 -18 -8 -20 -9 -7 -1 10 -6 15 -11 12 -6 -4 -7
-11 -4 -17 4 -7 2 -8 -4 -4 -6 4 -9 14 -6 24 5 14 4 14 -4 3 -12 -17 -40 -23
-48 -10 -3 5 -10 6 -16 3 -7 -5 -9 -1 -5 9 4 12 2 14 -10 10 -12 -5 -14 -3 -7
8 13 21 15 49 4 49 -6 0 -10 5 -10 11 0 5 4 8 8 5 4 -2 8 4 8 15 0 10 -4 19
-8 19 -5 0 -4 9 2 20 9 16 8 22 -4 26 -14 5 -14 8 1 22 10 11 12 17 4 20 -6 2
-8 9 -4 15 11 17 13 37 4 37 -4 0 -7 10 -5 23 1 12 3 22 4 22 1 0 3 8 5 18 2
9 0 17 -4 17 -10 0 -8 31 3 48 4 7 1 15 -8 18 -14 5 -14 8 0 21 9 9 12 19 7
22 -12 9 -15 34 -3 26 5 -3 10 -1 10 4 0 6 -6 11 -12 11 -9 0 -8 4 2 10 12 8
12 10 1 10 -11 0 -11 3 0 17 11 13 11 17 2 20 -7 3 -13 9 -13 14 0 6 4 8 8 5
4 -2 8 4 8 15 0 10 -4 19 -8 19 -4 0 -4 10 1 23 4 12 7 30 5 40 -2 15 0 16 14
5 13 -11 14 -11 7 1 -6 11 -3 13 13 9 12 -4 24 -2 27 2 7 11 45 9 45 -3 0 -4
5 -5 10 -2 6 4 7 12 3 18 -3 7 4 3 17 -8 13 -11 20 -14 16 -7z m992 9 c9 4 13
2 9 -4 -3 -5 0 -10 8 -10 8 0 12 4 9 9 -3 4 2 8 11 8 10 0 14 -5 9 -12 -5 -10
-4 -10 6 -1 9 8 19 9 32 2 12 -6 18 -6 18 1 0 15 40 12 41 -2 0 -10 2 -10 6 0
2 6 9 12 14 12 6 0 7 -6 3 -12 -5 -10 -4 -10 6 -1 10 9 18 9 33 1 16 -8 19 -8
14 5 -4 11 0 13 16 9 12 -3 25 -10 29 -16 5 -8 8 -7 8 2 0 6 5 12 11 12 5 0 7
-6 3 -12 -5 -10 -4 -10 6 -1 9 8 19 9 32 2 12 -6 18 -6 18 1 0 15 40 12 41 -2
0 -10 2 -10 6 0 2 6 9 12 14 12 6 0 7 -6 3 -12 -5 -10 -4 -10 6 -1 10 9 18 9
33 1 16 -8 19 -8 14 5 -4 11 0 13 16 9 12 -3 25 -10 29 -16 5 -8 8 -7 8 2 0 6
5 12 11 12 5 0 7 -6 3 -12 -5 -10 -4 -10 6 -1 9 8 19 9 32 2 12 -6 18 -6 18 1
0 15 40 12 41 -2 0 -10 2 -10 6 0 2 6 9 12 14 12 6 0 7 -6 3 -12 -5 -10 -4
-10 6 -1 10 9 18 9 33 1 16 -8 19 -8 14 5 -4 11 0 13 16 9 12 -3 25 -10 29
-16 5 -8 8 -7 8 2 0 6 5 12 11 12 5 0 7 -6 3 -12 -5 -10 -4 -10 6 -1 9 8 19 9
32 2 12 -6 18 -6 18 1 0 5 9 10 20 10 11 0 20 -5 20 -12 0 -6 7 -3 15 8 9 12
13 13 10 4 -4 -11 1 -16 15 -17 11 -1 20 3 20 8 0 6 -5 7 -12 3 -7 -4 -8 -3
-4 4 5 9 16 8 42 -3 18 -7 34 -10 34 -4 0 14 40 11 41 -3 0 -10 2 -10 6 0 2 6
9 12 14 12 6 0 7 -6 3 -12 -5 -10 -4 -10 6 -1 10 9 18 9 33 1 16 -8 19 -8 14
5 -4 11 0 13 16 9 12 -3 25 -10 29 -16 5 -8 8 -7 8 2 0 6 5 12 11 12 5 0 7 -6
3 -12 -5 -10 -4 -10 6 -1 9 8 19 9 32 2 12 -6 18 -6 18 1 0 15 40 12 41 -2 0
-10 2 -10 6 0 2 6 9 12 14 12 6 0 7 -6 3 -12 -5 -10 -4 -10 6 -1 10 9 18 9 33
1 16 -8 19 -8 14 5 -4 11 0 13 16 9 12 -3 25 -10 29 -16 5 -8 8 -7 8 2 0 6 5
12 11 12 5 0 7 -6 3 -12 -5 -10 -4 -10 6 -1 9 8 19 9 32 2 12 -6 18 -6 18 1 0
5 7 10 16 10 8 0 12 -4 9 -10 -3 -6 1 -7 9 -4 9 3 13 11 11 18 -3 6 0 3 7 -6
11 -15 13 -15 23 -1 10 13 14 13 20 3 6 -9 4 -11 -5 -5 -8 5 -11 4 -6 -3 4 -6
13 -9 21 -6 8 4 13 9 10 14 -2 4 7 5 20 2 14 -2 28 -8 30 -13 8 -13 36 2 28
15 -3 6 4 2 16 -8 22 -20 22 -20 16 0 -6 18 -6 18 8 2 9 -12 17 -14 24 -7 8 8
13 7 18 -2 6 -8 4 -10 -5 -4 -10 6 -12 3 -8 -13 5 -16 2 -19 -11 -14 -14 5
-14 4 -1 -13 14 -17 14 -18 -7 -7 -19 11 -20 10 -15 -11 5 -20 4 -21 -13 -7
-11 9 -16 10 -11 3 4 -7 2 -13 -3 -13 -6 0 -11 -7 -11 -15 0 -8 -5 -15 -11
-15 -5 0 -7 -6 -3 -12 5 -10 4 -10 -6 -1 -11 10 -17 9 -32 -4 -20 -18 -25 -38
-6 -27 7 4 8 3 4 -4 -5 -9 -13 -9 -29 0 -20 10 -21 9 -9 -5 11 -13 10 -16 -8
-22 -18 -6 -19 -9 -8 -22 11 -14 11 -15 -9 -5 -17 9 -22 9 -26 -3 -3 -7 -1
-16 6 -19 7 -3 2 -3 -10 -1 -12 3 -25 0 -29 -6 -5 -8 -3 -9 6 -4 9 6 11 4 6
-4 -5 -7 -14 -10 -22 -7 -8 3 -14 -1 -14 -10 0 -9 5 -12 12 -8 6 4 8 3 4 -4
-3 -6 -15 -9 -26 -7 -11 2 -19 1 -17 -3 1 -4 -8 -20 -20 -36 -13 -16 -23 -25
-23 -20 0 5 -5 1 -11 -8 -5 -10 -17 -18 -26 -18 -9 0 -13 -6 -10 -14 4 -11 1
-13 -10 -9 -11 4 -14 2 -9 -5 4 -8 0 -12 -11 -12 -11 0 -28 -7 -39 -16 -18
-15 -18 -15 3 -5 15 8 24 8 28 1 4 -6 3 -9 -2 -8 -4 1 -18 -3 -30 -10 -13 -7
-23 -10 -23 -7 0 4 -5 3 -11 -1 -8 -4 -7 -9 2 -15 11 -7 10 -9 -3 -9 -10 0
-17 -3 -15 -8 1 -4 -1 -8 -6 -9 -16 -5 -35 -29 -29 -38 3 -5 -1 -4 -10 3 -13
10 -18 9 -29 -4 -8 -10 -13 -19 -11 -21 7 -10 0 -23 -13 -23 -8 0 -15 -7 -15
-16 0 -8 -5 -12 -10 -9 -6 4 -24 -5 -41 -19 -17 -14 -28 -26 -24 -26 3 0 3 -5
-1 -11 -4 -8 -9 -7 -16 2 -7 10 -9 9 -5 -7 3 -17 0 -20 -23 -19 -14 1 -33 5
-41 10 -11 7 -12 6 -2 -6 11 -13 9 -15 -10 -14 -12 1 -28 -2 -35 -8 -10 -8
-12 -7 -10 4 2 8 -3 13 -10 11 -44 -9 -59 -7 -79 6 -21 13 -24 12 -32 -9 -9
-21 -16 -11 -12 14 1 5 -3 6 -9 2 -6 -3 -8 -10 -5 -15 3 -5 1 -12 -5 -15 -6
-4 -9 -1 -8 7 2 7 -3 12 -10 10 -44 -9 -59 -7 -79 6 -21 13 -24 12 -32 -9 -9
-21 -16 -11 -12 14 1 5 -3 6 -9 2 -6 -3 -8 -10 -5 -15 3 -5 1 -12 -5 -15 -6
-4 -9 -1 -8 7 2 7 -3 12 -10 10 -44 -9 -59 -7 -79 6 -21 13 -24 12 -32 -9 -9
-21 -16 -11 -12 14 1 5 -3 6 -9 2 -6 -3 -8 -10 -5 -15 3 -5 1 -12 -5 -15 -6
-4 -9 -1 -8 7 2 7 -3 12 -10 10 -44 -9 -59 -7 -79 6 -21 13 -24 12 -32 -9 -9
-21 -16 -11 -12 14 1 5 -3 6 -9 2 -6 -3 -8 -10 -5 -15 3 -5 0 -12 -6 -16 -7
-4 -9 -3 -5 4 6 11 -9 25 -31 28 -7 1 -16 -3 -20 -8 -3 -6 -2 -8 4 -5 5 3 10
0 10 -8 0 -12 -3 -12 -14 -3 -11 9 -17 8 -25 -3 -8 -11 -9 -11 -4 4 3 11 0 17
-9 17 -8 0 -15 -8 -15 -17 0 -15 -2 -16 -9 -3 -6 8 -8 17 -5 21 2 4 -4 6 -13
4 -10 -2 -22 -4 -26 -4 -5 -1 -5 -5 -2 -11 3 -6 -1 -7 -9 -4 -10 4 -16 1 -16
-7 -1 -9 -4 -8 -11 4 -5 9 -15 17 -20 17 -6 0 -8 -4 -4 -9 3 -5 0 -13 -6 -17
-7 -4 -9 -3 -6 3 15 24 -40 40 -60 18 -4 -4 -3 -5 3 -2 6 3 11 0 11 -8 0 -11
-5 -10 -24 2 -18 12 -26 13 -37 4 -11 -9 -16 -9 -22 0 -5 8 -3 9 6 4 8 -5 11
-4 7 2 -7 11 -43 10 -54 -2 -5 -4 -3 -5 4 -1 14 8 28 -10 14 -18 -5 -4 -13 -1
-16 5 -4 5 -13 8 -21 5 -7 -3 -16 -1 -19 4 -10 17 -25 11 -18 -7 4 -12 0 -11
-11 4 -16 22 -47 26 -63 8 -5 -4 -3 -5 3 -2 6 3 11 0 11 -8 0 -12 -3 -12 -14
-3 -11 9 -17 8 -25 -3 -8 -11 -9 -11 -4 4 3 11 0 17 -9 17 -8 0 -15 -8 -15
-17 0 -15 -2 -16 -9 -3 -6 8 -7 19 -5 25 3 5 -2 1 -10 -9 -15 -18 -16 -18 -16
-2 0 9 -5 14 -10 11 -6 -4 -7 -12 -4 -18 4 -7 0 -5 -9 3 -9 8 -19 32 -22 53
-5 31 -3 37 12 38 10 0 13 3 6 6 -7 2 -13 9 -13 15 0 6 8 7 17 4 10 -4 14 -4
10 0 -4 4 -1 14 6 22 10 13 9 15 -3 8 -9 -4 -8 -2 2 7 10 8 14 17 10 21 -3 4
4 16 18 28 17 13 19 18 7 14 -15 -5 -16 -3 -7 14 6 11 18 20 28 20 11 0 13 3
6 8 -13 8 -12 48 1 59 4 5 5 2 1 -4 -4 -7 -2 -13 4 -13 6 0 8 -5 4 -12 -4 -6
-3 -8 2 -5 5 3 9 23 9 45 0 35 2 39 17 31 14 -7 16 -6 12 6 -4 8 0 23 7 32 12
15 12 16 -5 10 -16 -6 -17 -5 -6 8 7 8 16 12 21 9 5 -3 6 3 2 12 -5 14 -3 16
12 11 15 -6 16 -5 5 8 -8 10 -9 15 -2 15 7 0 9 7 5 17 -5 12 -3 14 8 8 11 -7
11 -5 -1 10 -12 15 -12 17 -1 10 11 -6 13 -4 7 10 -5 14 -4 16 8 6 11 -10 13
-6 11 24 -2 41 9 54 24 28 13 -23 14 -12 1 21 -8 21 -6 27 9 35 10 6 21 8 24
5 3 -3 3 3 0 15 -4 15 -1 21 11 21 9 0 16 6 16 13 0 8 3 8 8 2 8 -12 27 -13
38 -2 11 11 26 9 19 -3 -3 -6 1 -7 9 -4 9 3 13 11 9 18 -4 8 -2 8 7 -1 7 -6
19 -9 28 -6z m2338 1 c3 -4 17 -3 30 2 14 6 26 6 29 0 3 -6 15 -6 30 0 15 6
27 6 30 0 3 -6 15 -6 30 0 15 6 27 6 30 0 3 -6 15 -6 30 0 15 6 27 6 30 0 3
-6 15 -6 30 0 15 6 27 6 30 0 3 -6 15 -6 30 0 15 6 27 6 30 0 3 -6 15 -6 29 0
13 5 27 6 30 2 10 -9 46 -10 46 0 0 5 5 6 12 2 6 -4 27 -8 47 -10 60 -5 61 -5
44 -31 -15 -22 -14 -23 3 -16 17 6 17 5 5 -10 -9 -12 -10 -17 -2 -17 7 0 9 -5
6 -10 -4 -6 -12 -7 -18 -3 -7 4 -5 -4 5 -18 11 -18 13 -30 6 -40 -8 -11 -9
-11 -4 3 3 12 1 15 -10 11 -11 -4 -12 -9 -4 -18 8 -10 8 -15 0 -20 -8 -5 -8
-11 1 -21 6 -8 8 -14 4 -14 -4 0 0 -11 9 -24 15 -24 7 -44 -12 -32 -5 3 -9 -1
-9 -9 0 -8 4 -12 9 -9 4 3 8 -2 8 -10 0 -9 -3 -15 -7 -14 -5 2 -9 -1 -10 -7
-2 -5 1 -10 6 -10 5 0 13 -4 18 -8 4 -5 3 -8 -2 -7 -22 5 -27 -1 -15 -15 7 -8
17 -12 23 -8 6 4 7 1 2 -6 -5 -9 -10 -10 -18 -2 -20 20 -30 11 -12 -9 18 -20
18 -21 -4 -27 -16 -4 -19 -8 -10 -14 10 -6 10 -11 -2 -25 -9 -11 -9 -15 -1
-10 7 4 12 1 12 -9 0 -10 -5 -13 -12 -9 -8 5 -7 0 2 -11 12 -15 12 -17 1 -10
-11 6 -13 2 -9 -19 4 -20 2 -24 -7 -16 -10 8 -13 6 -11 -7 0 -10 5 -21 11 -25
6 -5 5 -12 -4 -20 -12 -11 -13 -10 -6 2 7 13 6 13 -6 1 -11 -11 -11 -14 -1
-18 10 -4 9 -8 -4 -17 -13 -10 -14 -15 -4 -21 9 -6 11 -4 5 5 -5 9 -4 11 4 6
13 -8 0 -32 -26 -49 -7 -4 -11 -21 -9 -38 3 -24 0 -29 -12 -24 -12 4 -13 3 -2
-10 9 -11 9 -15 1 -15 -7 0 -10 -4 -7 -9 3 -5 -1 -12 -10 -15 -8 -3 -13 -10
-9 -15 3 -5 1 -13 -5 -16 -8 -5 -7 -12 2 -23 11 -14 10 -15 -6 -9 -16 6 -17 5
-6 -8 11 -13 10 -14 -5 -9 -12 5 -16 4 -12 -3 4 -6 -1 -17 -11 -24 -15 -13
-16 -12 -4 3 9 11 10 18 2 23 -5 3 -10 1 -10 -4 0 -6 -4 -11 -9 -11 -5 0 -7 8
-4 19 3 13 -2 20 -18 24 -13 4 -20 9 -16 13 4 4 1 14 -6 22 -8 11 -8 14 0 9 7
-4 10 -1 9 10 -2 9 -9 19 -17 21 -11 3 -11 1 1 -7 8 -6 10 -11 4 -11 -18 0
-24 12 -13 26 7 8 6 14 -2 20 -8 5 -9 3 -4 -6 6 -9 4 -11 -4 -5 -7 4 -11 16
-8 26 3 12 1 17 -6 12 -7 -4 -8 0 -4 12 6 14 3 16 -12 12 -13 -3 -18 0 -16 12
1 9 -3 22 -9 30 -8 11 -8 13 1 7 7 -4 5 6 -4 23 -10 16 -21 27 -25 25 -5 -3
-8 0 -8 5 0 6 6 11 13 12 9 0 9 2 -1 6 -6 2 -9 10 -5 16 4 7 0 7 -9 -1 -15
-12 -17 -10 -15 20 1 22 -3 32 -11 30 -6 -1 -12 3 -12 9 0 5 -5 7 -12 3 -7 -4
-8 -3 -4 5 4 6 13 9 19 5 7 -3 4 1 -5 9 -10 8 -19 26 -20 40 -1 15 -8 29 -16
32 -8 3 -10 0 -6 -7 4 -7 3 -8 -5 -4 -8 5 -9 12 -2 20 12 14 -31 70 -44 58 -5
-4 -4 0 1 8 14 25 14 43 0 31 -17 -14 -29 -1 -15 16 8 9 8 13 1 13 -6 0 -12
10 -14 23 -2 12 -9 21 -16 19 -8 -1 -11 2 -7 8 3 5 2 10 -4 10 -6 0 -8 7 -5
15 5 12 2 14 -12 8 -17 -6 -17 -5 -5 10 9 11 10 17 2 17 -6 0 -11 7 -11 16 0
8 -7 22 -15 30 -8 8 -12 21 -9 29 4 11 -1 15 -17 16 -23 0 -23 1 -4 9 l20 9
-20 1 c-19 1 -19 2 3 12 12 6 22 16 22 22 0 6 -5 5 -12 -2 -7 -7 -16 -12 -22
-12 -5 0 -2 6 8 13 19 14 50 16 62 5z m-3736 -14 c0 -2 -7 -4 -15 -4 -8 0 -15
4 -15 10 0 5 7 7 15 4 8 -4 15 -8 15 -10z m3416 -160 c-3 -9 0 -11 11 -7 11 4
14 2 9 -5 -4 -7 0 -12 11 -13 17 -1 17 -2 -1 -6 -17 -4 -16 -6 5 -17 13 -6 25
-17 25 -24 1 -7 2 -17 3 -23 0 -5 5 -7 11 -4 6 3 7 -1 4 -9 -3 -9 -11 -13 -18
-9 -6 3 -3 -3 7 -14 9 -11 14 -23 10 -28 -5 -4 -2 -5 5 -1 22 13 37 -6 16 -22
-18 -13 -18 -14 6 -7 22 7 23 6 12 -8 -11 -13 -10 -18 13 -33 20 -13 23 -19
14 -31 -10 -11 -8 -15 10 -20 16 -4 19 -9 11 -18 -7 -9 -3 -17 15 -31 14 -10
25 -29 25 -41 0 -13 5 -23 10 -23 14 0 12 -27 -2 -34 -7 -3 -2 -4 12 -2 23 4
25 1 25 -40 0 -23 -6 -49 -13 -56 -7 -7 -13 -8 -12 -3 5 22 -1 27 -15 15 -8
-7 -15 -8 -15 -3 0 8 -32 10 -50 3 -3 -1 -13 -1 -24 0 -11 1 -15 -3 -12 -9 4
-7 1 -8 -8 -5 -9 3 -16 10 -16 15 0 5 -12 4 -26 -1 -31 -12 -37 -12 -30 -2 3
5 -1 9 -9 9 -8 0 -12 -4 -9 -9 3 -4 1 -8 -5 -8 -5 0 -12 4 -15 8 -4 7 -69 8
-86 2 -3 -1 -13 -1 -24 0 -11 1 -15 -3 -12 -9 4 -7 1 -8 -8 -5 -9 3 -16 10
-16 15 0 5 -12 4 -26 -1 -31 -12 -37 -12 -30 -2 3 5 -1 9 -9 9 -8 0 -12 -4 -9
-9 3 -4 1 -8 -5 -8 -5 0 -12 4 -15 8 -4 7 -69 8 -86 2 -3 -1 -13 -1 -24 0 -11
1 -15 -3 -12 -9 4 -7 1 -8 -8 -5 -9 3 -16 10 -16 15 0 5 -12 4 -26 -1 -31 -12
-37 -12 -30 -2 3 5 -1 9 -9 9 -8 0 -12 -4 -9 -9 6 -10 -10 -11 -20 -1 -11 11
-35 12 -42 2 -8 -14 -26 -11 -18 4 5 9 4 9 -6 0 -9 -8 -17 -9 -30 -1 -16 10
-15 14 13 45 17 18 36 33 44 33 7 0 13 5 13 11 0 6 7 9 14 6 10 -4 13 -1 10 8
-6 14 29 39 39 28 4 -3 4 4 2 17 -4 19 -2 20 12 8 12 -9 15 -9 9 0 -4 7 -1 12
8 12 10 0 16 9 16 22 0 21 0 21 14 3 13 -18 14 -17 11 12 -2 23 1 30 11 26 8
-3 11 -10 7 -16 -3 -6 -1 -7 6 -3 6 4 9 12 6 17 -6 9 10 19 39 23 8 1 18 5 22
9 4 3 -6 4 -22 2 -28 -5 -29 -5 -6 8 12 7 20 16 17 20 -3 4 -2 5 1 2 13 -9 45
17 40 32 -6 14 -4 14 11 2 10 -7 15 -9 11 -5 -4 5 0 15 10 23 9 8 11 11 3 7
-9 -4 -12 -3 -7 4 3 6 19 9 34 6 20 -3 23 -2 12 5 -12 9 -9 16 19 45 19 19 37
34 40 32 10 -5 40 32 33 40 -4 5 1 2 11 -5 15 -12 17 -12 11 4 -5 13 -4 16 4
11 7 -4 12 -1 12 8 0 20 17 29 26 15 5 -8 3 -9 -6 -4 -9 5 -11 4 -6 -4 10 -15
29 -3 22 15 -3 8 0 11 10 7 8 -3 13 -12 10 -19z m899 -14 c-1 -11 -5 -23 -10
-27 -4 -5 -5 -3 -1 4 3 6 2 14 -4 18 -6 4 -8 11 -5 16 10 16 22 10 20 -11z
m-474 -177 c13 -16 12 -17 -3 -4 -17 13 -22 21 -14 21 2 0 10 -8 17 -17z
m-291 -23 c0 -5 -2 -10 -4 -10 -3 0 -8 5 -11 10 -3 6 -1 10 4 10 6 0 11 -4 11
-10z m-3553 -47 c0 -9 -4 -10 -14 -2 -7 6 -13 12 -13 14 0 1 6 2 13 2 8 0 14
-6 14 -14z m2563 -113 c0 -5 -5 -10 -11 -10 -5 0 -7 5 -4 10 3 6 8 10 11 10 2
0 4 -4 4 -10z m-96 -95 c-9 -14 -18 -25 -21 -25 -5 0 5 18 20 38 17 22 18 13
1 -13z m1228 -12 c-6 -2 -9 -10 -6 -15 4 -7 2 -8 -5 -4 -13 9 -5 26 12 25 9 0
8 -2 -1 -6z m-2719 -25 c9 -31 2 -33 -11 -3 -6 14 -8 25 -3 25 5 0 11 -10 14
-22z m187 -18 c0 -5 -4 -10 -10 -10 -5 0 -10 5 -10 10 0 6 5 10 10 10 6 0 10
-4 10 -10z m240 0 c0 -5 -4 -10 -10 -10 -5 0 -10 5 -10 10 0 6 5 10 10 10 6 0
10 -4 10 -10z m-1410 -90 c6 -11 8 -20 6 -20 -3 0 -10 9 -16 20 -6 11 -8 20
-6 20 3 0 10 -9 16 -20z m4420 -144 c0 -3 -4 -8 -10 -11 -5 -3 -10 -1 -10 4 0
6 5 11 10 11 6 0 10 -2 10 -4z m-3492 -31 c-3 -3 -9 2 -12 12 -6 14 -5 15 5 6
7 -7 10 -15 7 -18z m120 0 c-3 -3 -9 2 -12 12 -6 14 -5 15 5 6 7 -7 10 -15 7
-18z m137 3 c5 4 5 1 1 -5 -9 -17 40 -18 50 -1 5 8 10 6 15 -8 7 -18 8 -18 8
1 1 16 3 17 10 6 8 -13 12 -13 27 0 11 9 15 9 10 2 -4 -8 -1 -13 9 -13 9 0 13
5 9 11 -4 7 -1 10 7 7 8 -3 14 -10 14 -16 0 -5 3 -13 7 -17 3 -4 5 6 3 21 -2
25 -1 26 10 11 14 -20 30 -23 19 -4 -5 7 0 6 11 -3 14 -11 17 -12 11 -1 -6 9
-4 12 5 9 8 -3 14 -10 14 -15 0 -6 3 -14 7 -18 3 -4 5 6 3 21 -2 25 -1 26 10
11 14 -20 30 -23 19 -4 -5 7 0 6 11 -3 14 -11 17 -12 11 -1 -6 9 -4 12 5 9 8
-3 14 -10 14 -15 0 -6 3 -14 7 -18 3 -4 5 6 3 21 -2 25 -1 26 10 11 14 -20 30
-23 19 -4 -5 7 0 6 11 -3 14 -11 17 -12 11 -1 -6 9 -4 12 5 9 8 -3 14 -10 14
-16 0 -5 3 -13 7 -17 3 -4 5 6 3 21 -2 25 -1 26 10 11 14 -20 30 -23 19 -4 -4
6 -4 9 1 5 4 -4 14 -3 21 3 10 9 15 7 20 -4 9 -23 31 -28 46 -9 9 11 9 14 1 8
-9 -5 -11 -2 -6 11 6 14 9 13 19 -12 10 -24 13 -26 14 -10 1 11 4 14 7 8 2 -7
9 -13 14 -13 4 0 7 6 5 13 -1 6 -1 9 1 4 3 -4 10 -4 15 -1 6 4 8 2 5 -3 -4 -6
2 -13 13 -16 11 -3 23 0 27 5 3 6 1 8 -5 4 -6 -3 -14 -1 -18 6 -4 7 -4 10 1 6
4 -4 14 0 22 10 12 16 13 16 6 -2 -5 -15 -3 -17 7 -11 10 6 12 3 7 -11 -6 -17
-5 -17 5 -2 11 15 13 15 24 0 11 -15 12 -14 8 8 -2 14 -2 19 2 12 3 -6 11 -9
16 -6 7 4 8 2 4 -4 -4 -7 -2 -12 3 -12 6 0 14 0 19 -1 4 0 10 10 14 23 6 23 6
23 7 1 1 -26 17 -38 27 -22 4 8 3 9 -4 5 -17 -10 -15 -1 2 13 11 9 16 9 22 0
5 -8 3 -10 -7 -4 -8 5 -10 4 -6 0 10 -12 38 -15 31 -4 -3 5 0 9 5 9 6 0 11 -4
11 -10 0 -5 5 -10 11 -10 5 0 7 5 4 11 -4 6 0 9 11 7 12 -2 18 2 16 10 -1 8 2
11 7 7 6 -3 7 -13 4 -23 -6 -14 -4 -15 9 -4 13 10 17 10 21 0 4 -9 6 -7 6 4 1
22 17 32 27 17 4 -7 3 -9 -4 -5 -6 4 -10 -1 -9 -13 1 -18 3 -19 18 -5 13 12
18 13 22 2 4 -9 6 -7 6 4 1 9 5 19 10 22 5 4 7 -4 4 -15 -5 -16 -2 -20 8 -17
8 3 13 12 12 19 -2 9 1 8 9 -3 11 -15 13 -15 25 0 11 15 12 14 8 -6 -3 -20 -2
-22 10 -12 8 6 20 9 27 5 7 -4 4 1 -7 11 l-20 17 20 -8 c11 -4 26 -8 33 -8 6
0 12 -4 12 -9 0 -5 5 -6 10 -3 8 5 7 12 -2 23 -12 15 -11 16 4 3 10 -7 15 -18
11 -23 -3 -6 0 -8 8 -6 8 3 13 12 12 19 -2 9 1 8 9 -3 11 -15 13 -15 25 0 11
15 12 14 8 -6 -3 -20 -2 -22 10 -12 8 7 12 17 10 24 -3 6 0 3 7 -6 11 -15 13
-15 26 0 7 9 11 11 7 5 -8 -18 4 -35 18 -26 6 4 37 7 67 8 43 0 54 4 52 15 -2
11 1 11 11 -2 13 -17 15 -16 25 5 11 21 11 20 7 -6 -3 -24 -2 -27 10 -17 8 7
12 17 9 24 -3 6 1 3 9 -6 13 -17 15 -16 26 5 7 13 10 15 6 4 -7 -24 3 -39 18
-30 6 4 37 7 67 8 43 0 54 4 53 15 -2 12 0 11 9 -2 11 -15 13 -15 25 0 11 15
12 14 8 -6 -3 -20 -2 -22 10 -12 8 7 12 17 9 24 -3 6 2 2 10 -8 9 -11 16 -14
16 -8 0 7 12 12 26 12 17 0 23 -4 18 -12 -5 -9 -2 -9 9 1 14 11 17 11 18 0 0
-10 2 -11 6 -1 2 6 16 12 29 12 18 0 23 -4 18 -12 -5 -9 -2 -9 9 1 14 11 17
11 18 0 0 -10 2 -11 6 -1 2 6 16 12 29 12 18 0 23 -4 18 -12 -5 -9 -2 -9 9 1
14 11 17 11 18 0 0 -10 2 -11 6 -1 2 6 16 12 29 12 14 0 23 -4 20 -8 -3 -5 21
-8 52 -7 51 0 57 2 55 20 -2 18 -1 18 9 -2 10 -21 12 -22 24 -5 12 15 13 15 9
-6 -3 -20 -2 -22 10 -12 8 6 12 19 9 28 -2 9 1 7 7 -5 11 -21 13 -22 26 -5 8
9 12 11 8 5 -8 -18 4 -35 18 -26 6 4 37 7 67 8 49 0 55 2 53 20 -2 18 -2 18 9
-2 10 -21 12 -22 24 -5 12 15 13 15 9 -6 -3 -20 -2 -22 10 -12 8 6 12 19 9 28
-2 9 1 7 7 -5 11 -21 13 -22 26 -5 11 15 12 15 7 1 -6 -18 11 -35 20 -21 6 10
40 8 67 -3 10 -3 20 -2 23 3 3 5 -2 9 -11 8 -10 0 -18 7 -19 17 -1 12 0 13 3
2 3 -11 9 -13 24 -5 14 8 19 8 17 -1 -2 -6 3 -14 11 -17 8 -3 11 0 7 7 -4 6
-2 11 3 11 6 0 11 -7 11 -15 0 -8 5 -15 11 -15 5 0 7 6 4 13 -4 6 0 4 8 -5 8
-10 17 -15 21 -11 4 4 4 -1 0 -11 -5 -14 -9 -15 -15 -4 -5 7 -9 8 -9 2 0 -18
13 -24 27 -12 8 6 13 7 12 2 -4 -22 2 -35 13 -28 7 4 8 3 4 -5 -5 -7 -13 -9
-20 -4 -7 4 -5 1 4 -7 9 -9 15 -21 12 -28 -2 -8 2 -10 15 -5 16 6 16 5 4 -10
-10 -13 -10 -17 -1 -17 8 0 10 -8 7 -21 -4 -15 -2 -18 7 -10 16 14 29 2 16
-15 -8 -8 -6 -17 6 -28 15 -16 14 -16 -11 -12 -24 4 -25 3 -13 -11 11 -14 11
-16 -1 -8 -11 6 -13 4 -8 -8 4 -11 1 -15 -13 -12 -11 2 -23 -1 -26 -7 -4 -7
-2 -8 4 -4 7 4 12 3 12 -2 0 -6 -7 -13 -16 -16 -9 -3 -12 -11 -8 -18 5 -8 2
-9 -11 -4 -16 6 -16 4 -4 -11 8 -9 9 -14 3 -10 -7 4 -14 0 -18 -8 -3 -8 -13
-15 -22 -15 -10 0 -14 -5 -11 -14 4 -10 -4 -18 -24 -25 -16 -5 -29 -13 -29
-16 0 -3 5 -3 10 0 6 3 10 1 10 -4 0 -6 -7 -11 -15 -11 -8 0 -22 -11 -31 -25
-15 -23 -43 -37 -29 -15 10 16 -1 11 -16 -7 -10 -11 -10 -14 -1 -9 6 4 12 2
12 -3 0 -6 -7 -11 -16 -11 -9 0 -12 -5 -8 -12 4 -7 3 -8 -4 -4 -7 4 -12 2 -12
-4 0 -6 -4 -8 -10 -5 -5 3 -10 0 -10 -7 0 -10 -3 -9 -11 2 -8 12 -9 10 -4 -7
5 -18 2 -21 -13 -18 -13 2 -19 -2 -18 -13 0 -9 -6 -17 -14 -18 -37 -3 -41 -5
-34 -16 5 -8 2 -9 -11 -4 -14 5 -16 4 -6 -8 9 -11 6 -13 -19 -11 -16 1 -27 -2
-24 -7 3 -5 -2 -12 -13 -14 -10 -3 -23 -15 -28 -27 -7 -16 -17 -21 -34 -19
-14 2 -21 0 -17 -7 5 -7 1 -8 -10 -4 -12 4 -15 3 -10 -5 5 -8 1 -10 -10 -5
-13 5 -15 3 -9 -8 7 -11 5 -11 -10 1 -10 8 -16 10 -12 3 4 -6 3 -14 -2 -17 -5
-4 -13 -2 -16 4 -8 13 -35 -6 -35 -23 0 -6 7 -2 15 9 8 10 15 14 15 9 0 -17
-21 -34 -36 -28 -8 3 -14 -1 -14 -8 0 -7 -3 -9 -6 -6 -4 4 -1 15 7 24 13 16
12 17 -3 5 -9 -8 -21 -11 -26 -8 -5 3 -9 -1 -9 -9 0 -8 5 -11 11 -8 6 3 7 2 3
-3 -5 -5 -16 -9 -25 -9 -10 0 -16 -6 -14 -15 3 -12 1 -13 -9 -2 -16 15 -33 16
-23 0 5 -8 2 -9 -9 -5 -49 20 -53 20 -33 5 14 -11 16 -17 7 -22 -6 -4 -18 -3
-26 4 -10 8 -15 8 -21 -1 -4 -7 -3 -9 3 -6 5 3 10 0 10 -7 0 -8 -6 -12 -14 -9
-7 3 -13 10 -13 17 0 6 -4 5 -9 -3 -5 -8 -18 -12 -29 -9 -11 3 -26 1 -33 -4
-11 -8 -11 -9 2 -5 9 3 16 -1 16 -8 0 -10 -7 -11 -24 -4 -15 6 -23 5 -23 -2 0
-7 -6 -6 -17 2 -9 8 -14 9 -10 3 9 -15 -17 -26 -30 -13 -6 6 -19 6 -35 0 -14
-5 -30 -7 -34 -3 -5 4 -2 -2 6 -12 14 -18 14 -19 -8 -7 -13 7 -20 17 -15 24 5
9 3 9 -9 0 -8 -7 -19 -9 -23 -5 -5 4 -5 1 -1 -6 4 -7 11 -10 15 -8 4 3 8 -1 8
-8 0 -7 -6 -13 -13 -13 -7 0 -11 4 -8 9 3 4 2 8 -3 9 -4 0 -16 2 -26 4 -9 2
-15 -1 -11 -6 3 -5 11 -6 17 -3 7 4 8 3 4 -2 -4 -4 -24 -7 -44 -5 -25 2 -33
-1 -28 -9 4 -7 -5 -4 -21 6 -15 11 -25 14 -21 8 7 -13 -17 -27 -27 -16 -12 11
-36 10 -36 -1 0 -7 -5 -5 -10 3 -9 13 -10 13 -10 0 0 -13 -2 -13 -9 -1 -8 13
-12 13 -27 0 -16 -12 -17 -12 -9 1 7 13 6 13 -7 2 -13 -10 -17 -10 -20 0 -4
10 -8 10 -21 -1 -14 -11 -17 -11 -18 0 0 12 -1 12 -6 0 -4 -11 -7 -11 -13 0
-7 10 -12 10 -26 -2 -16 -12 -17 -12 -9 1 7 13 6 13 -7 2 -13 -10 -17 -10 -20
0 -4 10 -8 10 -21 -1 -14 -11 -17 -11 -18 0 0 12 -1 12 -6 0 -5 -11 -7 -11
-14 0 -6 11 -11 11 -20 2 -10 -10 -17 -9 -33 5 -11 9 -16 12 -13 6 4 -7 0 -14
-8 -18 -8 -3 -15 0 -15 6 0 6 -6 5 -17 -3 -15 -12 -16 -12 -8 1 7 13 6 13 -7
2 -13 -10 -17 -10 -20 0 -4 10 -8 10 -21 -1 -14 -11 -17 -11 -18 0 0 12 -1 12
-6 0 -4 -11 -7 -11 -13 0 -7 10 -12 10 -26 -2 -16 -12 -17 -12 -9 1 7 13 6 13
-7 2 -13 -10 -17 -10 -20 0 -4 10 -8 10 -21 -1 -14 -11 -17 -11 -18 0 0 12 -1
12 -6 0 -4 -11 -7 -11 -13 0 -7 10 -12 10 -26 -2 -16 -12 -17 -12 -9 1 7 13 6
13 -7 2 -13 -10 -17 -10 -20 0 -4 10 -8 10 -21 -1 -14 -11 -17 -11 -18 0 0 12
-1 12 -6 0 -4 -11 -7 -11 -13 0 -7 10 -12 10 -26 -2 -16 -12 -17 -12 -9 1 7
13 6 13 -7 2 -13 -10 -17 -10 -20 0 -4 10 -8 10 -21 -1 -14 -11 -17 -11 -18 0
0 12 -1 12 -6 0 -4 -11 -7 -11 -13 0 -7 10 -12 10 -26 -2 -16 -12 -17 -12 -9
1 7 13 6 13 -7 2 -13 -10 -17 -10 -20 0 -4 10 -8 10 -21 -1 -14 -11 -17 -11
-18 0 0 12 -1 12 -6 0 -4 -11 -7 -11 -13 0 -7 10 -12 10 -26 -2 -16 -12 -17
-12 -9 1 7 13 6 13 -7 2 -13 -10 -17 -10 -20 0 -4 10 -8 10 -21 -1 -14 -11
-17 -11 -18 0 0 12 -1 12 -6 0 -4 -11 -7 -11 -13 0 -7 10 -12 10 -26 -2 -16
-12 -17 -12 -9 1 7 13 6 13 -7 2 -13 -10 -17 -10 -20 0 -4 10 -8 10 -21 -1
-14 -11 -17 -11 -18 0 0 12 -1 12 -6 0 -4 -11 -7 -11 -13 0 -7 10 -12 10 -26
-2 -16 -12 -17 -12 -9 1 7 13 6 13 -7 2 -13 -10 -17 -10 -20 0 -4 10 -8 10
-21 -1 -14 -11 -17 -11 -18 0 0 12 -1 12 -6 0 -4 -11 -7 -11 -13 0 -7 10 -12
10 -26 -2 -16 -12 -17 -12 -9 1 7 13 6 13 -7 2 -13 -10 -17 -10 -20 0 -4 10
-8 10 -21 -1 -14 -11 -17 -11 -18 0 0 12 -1 12 -6 0 -4 -11 -7 -11 -13 0 -7
10 -12 10 -26 -2 -16 -12 -17 -12 -9 1 7 13 6 13 -7 2 -13 -10 -17 -10 -20 0
-4 10 -8 10 -21 -1 -14 -11 -17 -11 -18 0 0 12 -1 12 -6 0 -5 -11 -7 -11 -14
0 -6 11 -11 11 -20 2 -10 -10 -17 -9 -33 5 -11 9 -16 12 -13 6 4 -7 0 -14 -8
-18 -8 -3 -15 0 -15 6 0 6 -6 5 -17 -3 -15 -12 -16 -12 -8 1 7 13 6 13 -7 2
-13 -10 -17 -10 -20 0 -4 10 -8 10 -21 -1 -14 -11 -17 -11 -18 0 0 12 -1 12
-6 0 -4 -11 -7 -11 -13 0 -7 10 -12 10 -26 -2 -16 -12 -17 -12 -9 1 7 13 6 13
-7 2 -13 -10 -17 -10 -20 0 -4 10 -8 10 -21 -1 -14 -11 -17 -11 -18 0 0 12 -1
12 -6 0 -4 -11 -7 -11 -13 0 -7 10 -12 10 -26 -2 -16 -12 -17 -12 -9 1 7 13 6
13 -7 2 -13 -10 -17 -10 -20 0 -4 10 -8 10 -21 -1 -14 -11 -17 -11 -18 0 0 12
-1 12 -6 0 -4 -11 -7 -11 -13 0 -7 10 -12 10 -26 -2 -16 -12 -17 -12 -9 1 7
13 6 13 -7 2 -13 -10 -17 -10 -20 0 -4 10 -8 10 -21 -1 -14 -11 -17 -11 -18 0
0 12 -1 12 -6 0 -4 -11 -7 -11 -13 0 -7 10 -12 10 -26 -2 -15 -12 -17 -12 -9
0 6 11 4 13 -9 8 -14 -6 -17 -3 -12 8 3 9 2 13 -4 10 -13 -8 -13 -2 1 29 7 14
17 23 23 20 6 -3 3 1 -6 8 -15 13 -15 15 3 26 11 7 17 17 14 22 -4 6 1 13 9
16 9 3 16 12 16 19 0 7 7 16 16 19 8 3 13 10 9 15 -3 5 -1 13 5 16 8 5 7 12
-2 23 -11 14 -10 15 6 9 17 -7 17 -6 5 10 -12 15 -12 16 2 11 9 -3 16 -1 16 5
1 22 8 42 18 49 6 5 5 8 -3 8 -7 0 -10 5 -7 11 4 6 13 8 20 5 9 -3 12 2 10 15
-2 10 0 19 6 19 5 0 9 5 9 11 0 5 -4 8 -8 5 -5 -3 -9 1 -9 9 0 8 8 12 20 9 19
-3 19 -3 1 19 -11 12 -12 16 -4 10 10 -8 21 -9 30 -3 13 8 12 10 -2 10 -25 0
-22 19 5 30 13 5 16 9 7 10 -13 0 -13 2 0 9 8 6 17 8 20 6 4 -2 7 3 7 11 0 10
-4 11 -11 4 -5 -5 -14 -10 -20 -10 -5 0 1 8 12 19 12 10 19 21 15 25 -3 3 -1
6 5 6 6 0 9 6 6 14 -3 8 0 17 7 22 8 5 10 3 4 -7 -8 -12 -6 -12 8 0 18 14 24
26 8 17 -5 -3 -11 3 -14 13 -3 15 -1 18 11 14 10 -4 13 -2 8 5 -4 7 -2 12 3
12 6 0 11 5 11 11 0 5 -5 7 -12 3 -7 -4 -8 -3 -4 5 4 6 12 8 18 5 6 -4 8 1 3
15 -4 14 -3 21 5 19 7 -2 15 3 18 11 2 8 0 11 -5 8 -5 -3 -10 0 -10 9 0 10 7
12 21 8 17 -5 19 -4 9 6 -8 9 -9 19 -2 32 5 10 7 23 3 29 -4 8 -1 8 13 0 18
-9 20 -7 15 14 -3 16 0 25 8 25 7 0 10 8 7 19 -4 15 0 19 15 16 17 -4 18 -2 6
12 -7 9 -8 14 -2 10 6 -3 20 0 30 8 23 17 34 19 34 4 0 -5 -6 -7 -12 -3 -9 5
-9 2 1 -9 14 -18 22 -22 20 -9 -1 4 -1 14 0 22 1 13 3 13 10 1 8 -13 12 -13
27 0 10 8 15 9 11 3 -10 -18 31 -24 45 -7 11 13 13 13 19 -4 7 -17 8 -17 8 2
1 16 3 17 10 6 8 -13 12 -13 27 0 10 8 15 9 11 3 -4 -7 2 -14 13 -17 11 -3 23
0 27 5 3 6 1 8 -5 4 -6 -3 -14 -1 -18 5 -4 8 -3 9 4 5 7 -4 12 -1 13 6 0 10 2
10 6 0 2 -6 10 -9 16 -5 7 4 8 0 4 -13 -6 -17 -6 -17 6 -2 12 15 14 15 25 0 9
-14 9 -11 2 13 -9 26 -8 28 3 13 8 -10 18 -14 22 -10z m1410 3 c-3 -6 -11 -11
-16 -11 -5 0 -4 6 3 14 14 16 24 13 13 -3z m180 0 c-3 -6 -11 -11 -16 -11 -5
0 -4 6 3 14 14 16 24 13 13 -3z m60 0 c-3 -6 -11 -11 -16 -11 -5 0 -4 6 3 14
14 16 24 13 13 -3z m442 -3 c-3 -8 -6 -5 -6 6 -1 11 2 17 5 13 3 -3 4 -12 1
-19z m175 -10 c-8 -8 -9 -4 -5 13 4 13 8 18 11 10 2 -7 -1 -18 -6 -23z m65 10
c-3 -8 -6 -5 -6 6 -1 11 2 17 5 13 3 -3 4 -12 1 -19z m175 -10 c-8 -8 -9 -4
-5 13 4 13 8 18 11 10 2 -7 -1 -18 -6 -23z m-2709 1 c-8 -8 -13 -7 -18 2 -5 8
-4 10 3 5 7 -4 12 -2 12 5 0 7 3 9 7 6 4 -4 2 -12 -4 -18z m1508 -2 c-10 -9
-11 -8 -5 6 3 10 9 15 12 12 3 -3 0 -11 -7 -18z m44 13 c-3 -5 -12 -10 -18
-10 -7 0 -6 4 3 10 19 12 23 12 15 0z m196 -13 c-10 -9 -11 -8 -5 6 3 10 9 15
12 12 3 -3 0 -11 -7 -18z m584 13 c-3 -5 -12 -10 -18 -10 -7 0 -6 4 3 10 19
12 23 12 15 0z m180 0 c-3 -5 -12 -10 -18 -10 -7 0 -6 4 3 10 19 12 23 12 15
0z m60 0 c-3 -5 -12 -10 -18 -10 -7 0 -6 4 3 10 19 12 23 12 15 0z m180 0 c-3
-5 -12 -10 -18 -10 -7 0 -6 4 3 10 19 12 23 12 15 0z m-3405 -4 c0 -3 -4 -8
-10 -11 -5 -3 -10 -1 -10 4 0 6 5 11 10 11 6 0 10 -2 10 -4z m46 -5 c-3 -5 1
-12 10 -15 8 -3 12 -2 9 4 -8 13 1 13 27 -1 12 -6 18 -7 14 -1 -3 5 1 13 10
16 8 3 13 2 10 -2 -3 -4 5 -14 17 -22 20 -12 21 -11 9 2 -10 13 -10 17 5 22
10 4 14 4 10 0 -4 -4 1 -13 11 -20 10 -8 12 -13 5 -14 -7 0 -13 -5 -13 -11 0
-5 5 -7 12 -3 7 5 8 3 4 -5 -5 -7 -14 -10 -22 -7 -9 3 -11 0 -7 -11 5 -12 3
-14 -8 -8 -11 7 -12 6 -2 -6 10 -12 8 -17 -7 -26 -12 -8 -17 -21 -16 -38 2
-14 -1 -25 -5 -25 -5 0 -8 -3 -8 -7 3 -21 -2 -33 -16 -33 -8 0 -15 -5 -15 -11
0 -5 4 -8 8 -5 5 3 9 -2 9 -10 0 -8 -6 -13 -12 -10 -8 3 -11 -5 -9 -19 1 -13
-4 -29 -12 -36 -11 -9 -14 -9 -14 1 0 8 -3 10 -6 7 -4 -4 -1 -14 7 -24 9 -11
10 -14 2 -9 -9 5 -13 0 -13 -16 0 -13 -5 -29 -11 -35 -6 -6 -12 -19 -14 -29
-2 -11 -4 -20 -5 -21 -2 -2 -3 -7 -4 -12 0 -5 -5 -13 -10 -18 -5 -5 -6 -2 -1
6 6 10 4 12 -4 6 -7 -4 -11 -16 -8 -26 3 -10 0 -17 -5 -16 -6 1 -13 -4 -16
-12 -3 -9 0 -11 9 -7 8 4 6 1 -3 -7 -10 -8 -15 -17 -11 -21 4 -4 0 -4 -10 0
-15 5 -15 9 -5 22 8 10 9 13 1 9 -15 -10 -22 13 -12 41 5 12 5 22 0 22 -4 0
-8 7 -8 15 0 9 6 14 13 11 8 -3 11 0 7 10 -3 7 -10 14 -17 14 -6 0 -4 5 4 10
10 6 11 10 3 10 -7 0 -13 5 -13 11 0 5 4 8 8 5 4 -2 8 4 8 15 0 10 -4 19 -8
19 -5 0 -4 9 2 20 9 16 8 22 -4 26 -14 5 -14 8 0 21 9 9 12 19 7 22 -12 9 -15
34 -3 26 5 -3 10 -1 10 4 0 6 -6 11 -12 11 -9 0 -8 4 2 10 12 8 12 10 1 10
-11 0 -11 3 0 17 11 13 11 17 2 20 -7 3 -13 9 -13 14 0 6 4 8 8 5 4 -2 8 4 8
15 0 10 -4 19 -8 19 -5 0 -4 9 2 19 7 14 7 20 -1 23 -7 2 -4 10 7 18 16 13 17
13 10 0 -4 -9 -2 -8 7 2 8 10 17 15 21 11 12 -12 46 -10 57 4 13 15 23 18 15
4z m3994 -75 c0 -3 -4 -8 -10 -11 -5 -3 -10 -1 -10 4 0 6 5 11 10 11 6 0 10
-2 10 -4z m-3885 -46 c3 -5 -1 -10 -10 -10 -9 0 -13 5 -10 10 3 6 8 10 10 10
2 0 7 -4 10 -10z m-492 -75 c-7 -21 -12 -19 -10 4 0 11 5 18 9 15 4 -3 5 -11
1 -19z m-3 -55 c-14 -9 -7 -14 13 -11 5 1 6 -3 2 -9 -5 -8 -11 -8 -21 1 -15
12 -10 29 9 29 7 0 6 -4 -3 -10z m5 -339 c3 -5 2 -12 -3 -15 -5 -3 -9 1 -9 9
0 17 3 19 12 6z m3515 -65 c0 -3 -4 -8 -10 -11 -5 -3 -10 -1 -10 4 0 6 5 11
10 11 6 0 10 -2 10 -4z m-3005 -74 c-3 -3 -11 0 -18 7 -9 10 -8 11 6 5 10 -3
15 -9 12 -12z m2395 -162 c-8 -5 -19 -10 -25 -10 -5 0 -3 5 5 10 8 5 20 10 25
10 6 0 3 -5 -5 -10z m35 -260 c3 -6 -1 -7 -9 -4 -18 7 -21 14 -7 14 6 0 13 -4
16 -10z m-300 -29 c3 -5 2 -12 -3 -15 -5 -3 -9 1 -9 9 0 17 3 19 12 6z"/>
<path d="M1006 4585 c4 -8 11 -15 16 -15 6 0 5 6 -2 15 -7 8 -14 15 -16 15 -2
0 -1 -7 2 -15z"/>
<path d="M1166 4585 c4 -8 11 -15 16 -15 6 0 5 6 -2 15 -7 8 -14 15 -16 15 -2
0 -1 -7 2 -15z"/>
<path d="M1273 4573 c0 -6 5 -9 11 -5 6 4 14 7 18 7 19 0 14 11 -6 11 -12 0
-23 -6 -23 -13z"/>
<path d="M1330 4580 c0 -5 5 -10 11 -10 5 0 7 5 4 10 -3 6 -8 10 -11 10 -2 0
-4 -4 -4 -10z"/>
<path d="M812 4515 c15 -16 20 -17 30 -6 11 11 10 13 0 7 -7 -4 -21 -2 -30 5
-15 12 -15 11 0 -6z"/>
<path d="M1437 4515 c3 -8 9 -12 14 -9 12 7 11 11 -5 17 -10 4 -13 1 -9 -8z"/>
<path d="M1095 4240 c3 -5 8 -10 11 -10 2 0 4 5 4 10 0 6 -5 10 -11 10 -5 0
-7 -4 -4 -10z"/>
<path d="M1746 4408 c3 -5 10 -6 15 -3 13 9 11 12 -6 12 -8 0 -12 -4 -9 -9z"/>
<path d="M1470 4140 c0 -5 5 -10 11 -10 5 0 7 5 4 10 -3 6 -8 10 -11 10 -2 0
-4 -4 -4 -10z"/>
<path d="M2000 4099 c0 -5 5 -7 10 -4 6 3 10 8 10 11 0 2 -4 4 -10 4 -5 0 -10
-5 -10 -11z"/>
<path d="M1811 3723 c-1 -17 16 -25 25 -12 4 7 3 9 -4 5 -5 -3 -13 0 -15 6 -4
9 -6 10 -6 1z"/>
<path d="M2885 4480 c3 -5 8 -10 11 -10 2 0 4 5 4 10 0 6 -5 10 -11 10 -5 0
-7 -4 -4 -10z"/>
<path d="M3198 3863 c7 -3 16 -2 19 1 4 3 -2 6 -13 5 -11 0 -14 -3 -6 -6z"/>
<path d="M3380 3590 c-8 -5 -12 -12 -9 -15 4 -3 12 1 19 10 14 17 11 19 -10 5z"/>
<path d="M4017 4590 c7 -8 20 -15 29 -16 9 -1 13 1 9 4 -4 4 -10 7 -13 7 -4 0
-14 4 -22 9 -12 7 -13 6 -3 -4z"/>
<path d="M3635 4580 c-3 -5 -1 -10 4 -10 6 0 11 5 11 10 0 6 -2 10 -4 10 -3 0
-8 -4 -11 -10z"/>
<path d="M3110 3386 c0 -2 7 -7 16 -10 8 -3 12 -2 9 4 -6 10 -25 14 -25 6z"/>
<path d="M2382 2934 c10 -10 20 -16 22 -13 3 3 -5 11 -17 18 -21 13 -21 12 -5
-5z"/>
<path d="M2544 2794 c2 -10 8 -20 14 -22 17 -5 15 13 -2 27 -12 10 -14 9 -12
-5z"/>
<path d="M4580 4040 c0 -5 5 -10 10 -10 6 0 10 5 10 10 0 6 -4 10 -10 10 -5 0
-10 -4 -10 -10z"/>
<path d="M4186 3991 c-3 -5 1 -11 9 -14 9 -4 12 -1 8 9 -6 16 -10 17 -17 5z"/>
<path d="M740 3836 c0 -2 7 -7 16 -10 8 -3 12 -2 9 4 -6 10 -25 14 -25 6z"/>
<path d="M1153 3765 c0 -8 4 -12 9 -9 4 3 11 -1 14 -10 3 -8 13 -17 22 -21 10
-4 4 7 -12 24 -35 36 -33 35 -33 16z"/>
<path d="M835 3508 l-20 -21 23 12 c12 6 22 16 22 21 0 13 -2 12 -25 -12z"/>
<path d="M1420 2829 c0 -5 5 -7 10 -4 6 3 10 8 10 11 0 2 -4 4 -10 4 -5 0 -10
-5 -10 -11z"/>
<path d="M1395 2760 c-4 -6 -11 -7 -17 -4 -7 4 -8 2 -4 -5 6 -9 11 -9 22 0 14
11 18 19 10 19 -3 0 -8 -5 -11 -10z"/>
<path d="M719 2703 c-13 -17 -13 -17 6 -3 11 8 22 16 24 17 2 2 0 3 -6 3 -6 0
-17 -8 -24 -17z"/>
<path d="M4152 3576 c7 -8 15 -12 17 -11 5 6 -10 25 -20 25 -5 0 -4 -6 3 -14z"/>
<path d="M4235 3490 c3 -5 8 -10 11 -10 2 0 4 5 4 10 0 6 -5 10 -11 10 -5 0
-7 -4 -4 -10z"/>
<path d="M4082 3014 c-7 -8 -8 -14 -3 -14 10 0 25 19 20 25 -2 1 -10 -3 -17
-11z"/>
<path d="M4046 2974 c-5 -14 -4 -15 9 -4 17 14 19 20 6 20 -5 0 -12 -7 -15
-16z"/>
<path d="M3667 2959 c7 -7 15 -10 18 -7 3 3 -2 9 -12 12 -14 6 -15 5 -6 -5z"/>
<path d="M3290 3065 c0 -5 5 -17 10 -25 5 -8 10 -10 10 -5 0 6 -5 17 -10 25
-5 8 -10 11 -10 5z"/>
<path d="M2956 2753 c-6 -14 -5 -15 5 -6 7 7 10 15 7 18 -3 3 -9 -2 -12 -12z"/>
<path d="M3365 2710 c-3 -6 1 -7 9 -4 18 7 21 14 7 14 -6 0 -13 -4 -16 -10z"/>
<path d="M4550 3046 c0 -8 9 -14 19 -13 15 1 17 4 9 14 -14 17 -28 16 -28 -1z"/>
<path d="M4570 3013 c5 -2 8 -9 4 -14 -3 -5 0 -9 6 -9 15 0 7 23 -8 26 -7 1
-8 0 -2 -3z"/>
<path d="M4345 2871 c-3 -5 -2 -12 3 -15 5 -3 9 1 9 9 0 17 -3 19 -12 6z"/>
<path d="M4447 2703 c3 -7 6 -13 8 -13 1 0 7 6 13 13 8 10 6 13 -7 13 -11 0
-17 -6 -14 -13z"/>
<path d="M1915 2970 c3 -5 8 -10 11 -10 2 0 4 5 4 10 0 6 -5 10 -11 10 -5 0
-7 -4 -4 -10z"/>
<path d="M936 1788 c3 -5 10 -6 15 -3 13 9 11 12 -6 12 -8 0 -12 -4 -9 -9z"/>
<path d="M586 1742 c-3 -5 1 -9 9 -9 8 0 12 4 9 9 -3 4 -7 8 -9 8 -2 0 -6 -4
-9 -8z"/>
<path d="M3081 2107 c-13 -21 -12 -21 5 -5 10 10 16 20 13 22 -3 3 -11 -5 -18
-17z"/>
<path d="M2026 1742 c-3 -5 1 -9 9 -9 8 0 12 4 9 9 -3 4 -7 8 -9 8 -2 0 -6 -4
-9 -8z"/>
<path d="M2186 1742 c-3 -5 1 -9 9 -9 8 0 12 4 9 9 -3 4 -7 8 -9 8 -2 0 -6 -4
-9 -8z"/>
<path d="M2346 1742 c-3 -5 1 -9 9 -9 8 0 12 4 9 9 -3 4 -7 8 -9 8 -2 0 -6 -4
-9 -8z"/>
<path d="M2506 1742 c-3 -5 1 -9 9 -9 8 0 12 4 9 9 -3 4 -7 8 -9 8 -2 0 -6 -4
-9 -8z"/>
<path d="M2586 1742 c-3 -5 1 -9 9 -9 8 0 12 4 9 9 -3 4 -7 8 -9 8 -2 0 -6 -4
-9 -8z"/>
<path d="M4570 2196 c0 -2 8 -10 18 -17 15 -13 16 -12 3 4 -13 16 -21 21 -21
13z"/>
<path d="M4500 1780 c-9 -6 -10 -10 -3 -10 6 0 15 5 18 10 8 12 4 12 -15 0z"/>
<path d="M3744 2192 c3 -5 0 -13 -6 -15 -9 -4 -10 -6 -1 -6 17 -1 25 16 12 25
-7 4 -9 3 -5 -4z"/>
<path d="M3550 2155 c-13 -14 -19 -25 -14 -25 5 0 15 9 22 20 7 12 18 18 24
14 7 -4 8 -3 4 4 -9 16 -9 16 -36 -13z"/>
<path d="M3150 1792 c-18 -15 -20 -19 -7 -19 10 0 15 3 12 6 -3 3 5 11 17 18
13 7 18 12 12 13 -7 0 -22 -8 -34 -18z"/>
<path d="M1925 1460 c-3 -5 -1 -10 4 -10 6 0 11 5 11 10 0 6 -2 10 -4 10 -3 0
-8 -4 -11 -10z"/>
<path d="M3230 1449 c0 -5 5 -7 10 -4 6 3 10 8 10 11 0 2 -4 4 -10 4 -5 0 -10
-5 -10 -11z"/>
<path d="M3310 1449 c0 -5 5 -7 10 -4 6 3 10 8 10 11 0 2 -4 4 -10 4 -5 0 -10
-5 -10 -11z"/>
<path d="M3390 1449 c0 -5 5 -7 10 -4 6 3 10 8 10 11 0 2 -4 4 -10 4 -5 0 -10
-5 -10 -11z"/>
<path d="M3470 1449 c0 -5 5 -7 10 -4 6 3 10 8 10 11 0 2 -4 4 -10 4 -5 0 -10
-5 -10 -11z"/>
<path d="M1046 1313 c-6 -14 -5 -15 5 -6 7 7 10 15 7 18 -3 3 -9 -2 -12 -12z"/>
<path d="M3700 769 c0 -5 5 -7 10 -4 6 3 10 8 10 11 0 2 -4 4 -10 4 -5 0 -10
-5 -10 -11z"/>
<path d="M736 642 c-3 -5 1 -9 9 -9 8 0 12 4 9 9 -3 4 -7 8 -9 8 -2 0 -6 -4
-9 -8z"/>
<path d="M660 1191 c0 -6 4 -13 10 -16 6 -3 7 1 4 9 -7 18 -14 21 -14 7z"/>
<path d="M600 1040 c-9 -6 -10 -10 -3 -10 6 0 15 5 18 10 8 12 4 12 -15 0z"/>
<path d="M4840 4560 c0 -5 5 -10 10 -10 6 0 10 5 10 10 0 6 -4 10 -10 10 -5 0
-10 -4 -10 -10z"/>
<path d="M250 2301 c0 -6 4 -13 10 -16 6 -3 7 1 4 9 -7 18 -14 21 -14 7z"/>
<path d="M250 2259 c0 -5 5 -7 10 -4 6 3 10 8 10 11 0 2 -4 4 -10 4 -5 0 -10
-5 -10 -11z"/>
<path d="M253 2125 c0 -8 4 -15 9 -15 4 0 8 4 8 9 0 6 -4 12 -8 15 -5 3 -9 -1
-9 -9z"/>
<path d="M250 2059 c0 -5 5 -7 10 -4 6 3 10 8 10 11 0 2 -4 4 -10 4 -5 0 -10
-5 -10 -11z"/>
<path d="M255 910 c-3 -5 -2 -10 4 -10 5 0 13 5 16 10 3 6 2 10 -4 10 -5 0
-13 -4 -16 -10z"/>
<path d="M3736 473 c-6 -14 -5 -15 5 -6 7 7 10 15 7 18 -3 3 -9 -2 -12 -12z"/>
<path d="M3245 311 c-9 -15 15 -25 28 -12 9 9 7 10 -7 5 -13 -5 -17 -4 -12 4
4 7 5 12 2 12 -3 0 -7 -4 -11 -9z"/>
</g>
</svg>
